<svg width="18" height="18" viewBox="0 0 18 18" fill="none" xmlns="http://www.w3.org/2000/svg">
<path d="M16.4133 2.8186L1.29036 7.95199C0.269796 8.27792 0.269796 8.84829 1.1048 9.01126L4.90872 10.0705L6.39318 13.9817C6.57874 14.3891 6.48596 14.5521 6.94985 14.5521C7.32097 14.5521 7.50652 14.3891 7.69208 14.2261C7.78486 14.1446 8.61986 13.4113 9.54765 12.5965L13.4443 15.1224C14.1866 15.4484 14.6505 15.2854 14.836 14.5521L17.4338 3.87787C17.7122 2.98156 17.0627 2.49267 16.4133 2.8186ZM14.4649 5.26307L7.22819 11.0483L6.94985 13.7372L5.46539 9.82608L14.001 5.1001C14.3721 4.85566 14.7432 5.01862 14.4649 5.26307Z" fill="#E3FE0F"/>
</svg>
