<svg width="18" height="16" viewBox="0 0 18 16" fill="none" xmlns="http://www.w3.org/2000/svg">
<path d="M4.03314 7.61686C4.03315 7.53006 4.05192 7.44414 4.08834 7.36399C4.12476 7.28385 4.17813 7.21109 4.24538 7.14987C4.31265 7.08864 4.39245 7.04017 4.48024 7.00724C4.56803 6.97431 4.66206 6.95757 4.75695 6.95798L5.95702 6.96156C6.14834 6.96156 6.33185 7.03109 6.46714 7.15484C6.60244 7.27859 6.67845 7.44644 6.67845 7.62146V11.772C6.81355 11.7354 6.98706 11.6963 7.17692 11.6554C7.3088 11.627 7.42634 11.5588 7.51047 11.4616C7.59458 11.3645 7.64035 11.2442 7.64032 11.1203V5.9717C7.64032 5.79667 7.71632 5.62881 7.85161 5.50503C7.9869 5.38126 8.17041 5.31171 8.36176 5.31168H9.5642C9.75554 5.31171 9.93904 5.38126 10.0743 5.50503C10.2096 5.62881 10.2856 5.79667 10.2856 5.9717V10.7501C10.2856 10.7501 10.5867 10.6387 10.8799 10.5255C10.9889 10.4833 11.0818 10.4128 11.1472 10.3226C11.2126 10.2325 11.2475 10.1267 11.2476 10.0185V4.32195C11.2476 4.14696 11.3236 3.97912 11.4589 3.85537C11.5942 3.73162 11.7776 3.66209 11.9689 3.66205H13.1714C13.3627 3.66205 13.5462 3.73157 13.6815 3.85533C13.8168 3.97908 13.8928 4.14693 13.8928 4.32195V9.01295C14.9353 8.32187 15.9918 7.49073 16.8301 6.49129C16.9518 6.34623 17.0323 6.17587 17.0644 5.99545C17.0965 5.81502 17.0794 5.63011 17.0144 5.45723C16.6263 4.43591 16.0095 3.49994 15.2033 2.70921C14.397 1.91849 13.4192 1.29041 12.3324 0.865191C11.2456 0.439972 10.0737 0.226966 8.89168 0.239806C7.70969 0.252645 6.54365 0.491049 5.46819 0.939757C4.39271 1.38847 3.43149 2.0376 2.64602 2.84562C1.86056 3.65363 1.26816 4.60274 0.906725 5.63221C0.545293 6.66166 0.422792 7.7488 0.54706 8.82405C0.671327 9.8993 1.03963 10.939 1.62839 11.8766C1.73096 12.0383 1.88185 12.1699 2.06334 12.2559C2.24483 12.3419 2.44939 12.3788 2.65299 12.3622C2.88043 12.3439 3.16362 12.3179 3.50031 12.2818C3.64687 12.2666 3.78219 12.2026 3.88047 12.1019C3.97877 12.0013 4.03315 11.8712 4.03328 11.7363L4.03314 7.61686Z" fill="#E3FE0F"/>
<path d="M4.00684 14.2739C5.27428 15.1173 6.77213 15.6236 8.33463 15.7367C9.89715 15.8496 11.4634 15.5652 12.8601 14.9145C14.2568 14.2638 15.4294 13.2724 16.2483 12.0499C17.0671 10.8275 17.5004 9.42161 17.5 7.98791C17.5 7.80901 17.4909 7.63202 17.4779 7.45605C14.3738 11.6907 8.64239 13.6705 4.0071 14.2732" fill="#E3FE0F"/>
</svg>
