<svg width="24" height="28" viewBox="0 0 24 28" fill="none" xmlns="http://www.w3.org/2000/svg">
<path fill-rule="evenodd" clip-rule="evenodd" d="M4.34537 4.36617C4.49487 4.2445 4.65501 4.13356 4.8147 4.02293C4.89381 3.96813 4.9728 3.9134 5.05034 3.85749L8.06172 1.69465C11.2172 -0.59234 12.7949 -0.578207 16.097 1.82011L20.6767 5.06459C22.5818 6.44639 23.4953 7.37906 23.9572 9.858C24.013 10.1569 24.0074 10.489 24.0022 10.8059V10.806V10.8061C24.0006 10.8994 23.9991 10.9915 23.9992 11.081L23.9992 16.163C23.9992 16.314 24.0011 16.4663 24.0029 16.6191C24.0101 17.202 24.0173 17.7939 23.9189 18.3631C23.4678 20.972 22.1339 21.9445 20.0686 23.3982L15.9075 26.366C15.8047 26.4391 15.7028 26.5133 15.601 26.5875C15.2712 26.8277 14.9418 27.0676 14.5838 27.2666C12.4038 28.4783 10.5258 28.1162 8.56247 26.7115L4.03382 23.4643C3.85442 23.3666 3.67659 23.2304 3.50462 23.0987C3.43626 23.0463 3.36882 22.9946 3.30257 22.9464C1.31968 21.5023 0.0161884 20.0326 0.010374 17.4055L0.00995888 11.28C0.0100054 11.183 0.00757351 11.0823 0.00510155 10.9799C-0.00188038 10.6907 -0.0091817 10.3883 0.0381409 10.1193C0.513617 7.41587 1.34775 6.50386 3.43613 5.01984L4.04794 4.57473C4.07392 4.55578 4.09999 4.53579 4.12629 4.51563C4.19691 4.46151 4.26916 4.40614 4.34537 4.36617ZM5.69556 9.99938C5.08706 11.0247 5.06903 11.6273 5.06837 12.7984L5.06867 14.2513C5.06884 14.483 5.06528 14.6986 5.06193 14.902V14.902C5.04158 16.137 5.02865 16.9212 5.90137 18.1074C6.33882 18.5439 6.83352 18.8837 7.34886 19.2196L9.01012 20.2678C9.11519 20.3343 9.21662 20.3988 9.31477 20.4613C11.3129 21.7325 11.9505 22.1382 14.1492 20.8066L16.7111 19.2213C18.4389 18.1175 18.9361 17.3575 18.9391 15.3853L18.9377 11.7026C18.9068 10.252 17.8999 9.39986 16.7794 8.70937L14.2818 7.15937C12.5796 6.10562 11.8362 5.9099 9.95295 7.0223L8.24683 8.08546C8.07801 8.19277 7.90599 8.2982 7.73334 8.40401C7.23337 8.71043 6.72812 9.02009 6.27979 9.38808C6.12921 9.51164 6.00908 9.64847 5.88672 9.78782C5.83074 9.85159 5.77429 9.91588 5.71425 9.97968L5.69556 9.99938ZM11.9422 8.43124C12.5833 8.33916 13.3874 8.89054 14.0101 9.31752C14.1639 9.42296 14.3066 9.52081 14.433 9.59951L15.5676 10.3027C16.7757 11.0594 16.9344 11.4152 16.9356 12.9161L16.9355 15.2585C16.9343 16.4563 16.6818 16.8912 15.7162 17.492L13.2746 19.0133C13.2359 19.0356 13.197 19.0586 13.1577 19.0818L13.1576 19.0819C12.9869 19.1828 12.8102 19.2872 12.627 19.352L12.5996 19.3614C12.4264 19.4224 12.2621 19.4434 12.0804 19.4625C11.2948 19.4828 10.4714 18.9158 9.76016 18.4261C9.58985 18.3089 9.42597 18.1961 9.27059 18.0968C9.08742 17.9797 8.91588 17.8746 8.75592 17.7765L8.75591 17.7765C7.64235 17.0939 7.09054 16.7557 7.08929 15.1482L7.08989 12.7862C7.09125 11.7605 7.1688 11.2346 8.07911 10.5646C8.47319 10.2745 8.8998 10.0213 9.32396 9.76959L9.32401 9.76956C9.48843 9.67198 9.65247 9.57461 9.81412 9.4754C9.94984 9.39208 10.0832 9.30522 10.2161 9.21861L10.2161 9.21861C10.7539 8.86829 11.2853 8.52211 11.9422 8.43124ZM11.9354 11.0215C9.91314 11.1747 9.2392 12.7924 9.39393 14.6168C9.50494 15.9262 10.7919 16.9988 12.1005 16.942C12.8396 16.8909 13.5803 16.4963 14.0677 15.9402C14.6878 15.2327 14.7045 14.2198 14.6424 13.3251C14.5543 12.0548 13.2024 10.9284 11.9354 11.0215ZM13.4902 15.2678C14.3981 14.0202 13.6788 11.7734 11.8346 11.9246C10.7093 12.1266 10.2559 12.9186 10.2566 13.9963C10.2573 15.2073 10.8962 16.1175 12.2471 15.9859C12.7436 15.9085 13.1901 15.6803 13.4902 15.2678Z" fill="url(#paint0_linear_8236_31)"/>
<defs>
<linearGradient id="paint0_linear_8236_31" x1="-4.65251" y1="12.0843" x2="29.6164" y2="0.842014" gradientUnits="userSpaceOnUse">
<stop offset="0.249585" stop-color="#E3FE0F"/>
<stop offset="1" stop-color="#506491"/>
</linearGradient>
</defs>
</svg>
