<svg width="38" height="50" viewBox="0 0 38 50" fill="none" xmlns="http://www.w3.org/2000/svg">
<path d="M21.7784 0.0150854C21.8935 -0.00532872 22.0278 0.00112921 22.1454 0.000469681C22.63 -0.0022455 23.1256 0.0928524 23.5697 0.291407C23.8145 0.400852 24.0385 0.570643 24.2654 0.713213L25.5839 1.54457L27.1255 2.51026L27.9904 3.04246C28.1681 3.16437 28.3365 3.30605 28.4881 3.45976C28.9546 3.93293 29.2901 4.5676 29.4315 5.21878C29.5391 5.71461 29.5281 6.2205 29.5262 6.72467L29.5123 8.40662L29.5015 12.108L29.5016 14.2274C29.5038 14.3121 29.5519 14.3157 29.617 14.3522L31.3964 15.4155L35.3256 17.7575L37.4217 19.0157C37.6 19.1314 37.8125 19.2423 37.9643 19.3913C37.9871 19.4397 37.9977 19.471 37.9996 19.5256L38 21.2388L37.9808 25.285L37.9644 36.3934C37.5455 36.75 37.0488 37.0413 36.5794 37.3232L35.1841 38.1647L31.159 40.6048L22.4311 45.8845L16.0363 49.7389L15.6265 50L0.307964 40.8373C0.199478 40.7625 0.0356813 40.6244 0.0174708 40.485C-0.000205451 40.3492 0.0104293 40.1951 0.0103322 40.0573L0.0112062 39.2634L0.00955525 36.6598L0.00970085 27.4416L0.00202833 24.7416L0.00163968 24.1292C0.00183392 24.0642 -0.0075384 23.9188 0.0164994 23.8605C0.0413142 23.8002 0.149994 23.7263 0.202343 23.6908L2.52784 22.2535L6.90675 19.5225L8.14385 18.7521C8.186 18.7253 8.39481 18.6146 8.41297 18.5809C8.42409 18.5602 8.41375 18.4051 8.41385 18.3735L8.41657 17.5916L8.41696 13.9678C8.41666 13.2856 8.38306 12.5829 8.43686 11.9039C8.57847 10.1178 9.32243 8.47341 10.4047 7.07436C10.8132 6.54619 11.3195 6.04987 11.8536 5.65189C12.4011 5.244 13.015 4.92096 13.5987 4.56876L16.4988 2.80425L19.2359 1.14374C19.6713 0.878905 20.1087 0.557766 20.5652 0.338602C20.9495 0.154083 21.359 0.0675222 21.7784 0.0150854Z" fill="#17161E"/>
<path d="M28.964 16.9424C28.992 16.9477 28.9762 16.9421 29.0081 16.9662L29.0108 18.5908L27.026 19.8349L26.9704 19.8157L26.9678 18.1971L28.964 16.9424Z" fill="white"/>
<path d="M15.105 25.2065L15.1181 27.0207L12.7212 28.5123C12.6866 28.5084 12.7048 28.5145 12.6695 28.487L12.6665 26.7556L15.105 25.2065Z" fill="white"/>
<path d="M23.2922 16.5288L26.1503 18.2572L26.144 19.8346L23.29 18.161L23.2922 16.5288Z" fill="white"/>
<path d="M8.98926 24.7935L11.8466 26.7425L11.8495 28.5125L8.99321 26.6218L8.98926 24.7935Z" fill="white"/>
<path d="M8.53864 19.4214C8.55383 19.4268 8.56688 19.4369 8.58042 19.4457L8.57148 22.0215L3.3357 25.2065C3.23448 25.2065 2.22672 24.5705 2.06518 24.4722L1.22559 23.9538C1.48017 23.7501 1.79038 23.5887 2.06881 23.4191L3.61408 22.4744L8.53864 19.4214Z" fill="white"/>
<path d="M22.8263 11.9834C22.8619 11.9869 22.8433 11.9812 22.8794 12.0072L22.8817 14.2848L15.585 18.595L15.529 18.5818L15.5269 16.2756L22.8263 11.9834Z" fill="white"/>
<path d="M22.8372 7.85107L22.8785 7.86413L22.8817 10.9412L15.5639 15.2891L15.5269 15.2652C15.5284 14.6849 15.5294 14.1287 15.6866 13.5641C15.931 12.6866 16.4421 11.8744 17.1207 11.251C17.3824 11.0106 17.7007 10.8326 18.0094 10.6562L18.9925 10.0875L22.8372 7.85107Z" fill="white"/>
<path d="M25.4663 6.20909L25.572 6.19867C25.7078 6.19412 25.7844 6.22558 25.8817 6.32052C26.0104 6.44604 26.1026 6.63346 26.1244 6.80988C26.1686 7.16867 26.1425 7.55683 26.1433 7.9192L26.1464 9.96644L26.148 17.3553L24.7423 16.5384L23.3135 15.7021C23.2713 15.5443 23.2991 15.3032 23.2981 15.1367L23.3011 13.5781L23.3008 7.46469L24.4626 6.77063C24.7879 6.57479 25.1139 6.35384 25.4663 6.20909Z" fill="white"/>
<path d="M0.826546 24.7935L2.85428 26.0384L2.85991 38.7439C2.80496 38.813 2.70937 38.8627 2.63686 38.9114L2.11411 39.2517L0.816895 40.0827L0.826546 24.7935Z" fill="white"/>
<path d="M37.1695 20.248C37.194 20.3884 37.1784 20.5613 37.1769 20.7051L37.1682 21.5488L37.1644 24.3801L37.1505 35.5373C37.0635 35.5388 36.0623 34.9039 35.8989 34.8054C35.6433 34.6908 35.3785 34.495 35.1401 34.3431L35.144 21.472L37.1695 20.248Z" fill="white"/>
<path d="M3.14466 39.2689C3.16676 39.2649 3.18863 39.2542 3.21098 39.2567C3.22434 39.2582 3.27873 39.2986 3.29099 39.3062L3.62127 39.5113L5.49409 40.6843L12.021 44.7508L15.1181 46.6984L15.1135 49.1737L13.9199 48.4305L1.22559 40.5145L3.14466 39.2689Z" fill="white"/>
<path d="M35.0705 35.124C35.2929 35.221 35.5105 35.3769 35.7187 35.503C36.2029 35.796 36.679 36.097 37.1829 36.3554L17.2848 48.3691L15.9355 49.1736L15.94 46.7853L35.0705 35.124Z" fill="white"/>
<path d="M22.6439 15.2891C22.666 15.2959 22.6508 15.2902 22.6864 15.3135C22.6886 15.5042 22.7145 15.7024 22.6153 15.8715C22.5837 15.9252 22.5547 15.9688 22.548 16.0324C22.5103 16.3889 22.5459 16.7921 22.5448 17.1528L22.5431 17.9952C22.5432 18.1195 22.5289 18.2655 22.551 18.3875C22.5644 18.4617 22.5957 18.5036 22.651 18.5511C22.9427 18.8017 23.3624 18.987 23.6936 19.1845L25.7419 20.441L17.7617 25.3678L15.9774 26.4461L15.9504 24.5885C15.823 24.4556 15.6797 24.3623 15.5269 24.2626L15.5315 19.7085C15.5351 19.694 15.5402 19.6789 15.5501 19.6679C15.6153 19.5949 15.7956 19.5138 15.8827 19.4592L17.1985 18.6463L22.6439 15.2891Z" fill="white"/>
<path d="M25.9817 3.31465C26.0678 3.30044 26.1683 3.30747 26.2557 3.30696C26.9166 3.30314 27.5857 3.56738 28.0533 4.03585C28.5363 4.51968 28.8216 5.19929 28.9428 5.8662C29.0376 6.38788 29.0062 6.91855 29.0037 7.44655L28.9945 9.39528L28.987 15.9657L27.0807 17.1813L27.0714 14.7417L27.0703 9.93105L27.0722 8.18838C27.0733 7.59804 27.1648 6.90052 26.9514 6.3426C26.8204 6.00006 26.6218 5.73225 26.2786 5.58187C25.9581 5.4414 25.6183 5.47138 25.3001 5.60057C25.0208 5.71403 24.7647 5.90463 24.5075 6.06157L23.2246 6.83279L19.4334 9.11863L18.0385 9.95812C17.6033 10.2202 17.1637 10.4549 16.7821 10.7967C16.0837 11.4223 15.5916 12.2017 15.2411 13.0646C15.1016 13.47 14.9882 13.8706 14.9435 14.2985C14.8934 14.7765 14.907 15.2606 14.9066 15.7406L14.9071 17.7655L14.9244 24.4828L13.1015 25.6197L13.091 25.5736C13.055 25.3459 13.0917 25.0417 13.0924 24.8055L13.0935 22.9111L13.0963 17.275L13.0923 15.5557C13.0896 14.8607 13.0897 14.1945 13.2293 13.5089C13.4677 12.3373 14.011 11.2581 14.7457 10.3204C15.1382 9.81959 15.6406 9.30097 16.153 8.92336C16.5842 8.60555 17.0893 8.35246 17.5501 8.07624L20.2468 6.44589L23.2023 4.6539L24.2398 4.02616C24.4745 3.88361 24.7061 3.72908 24.9517 3.60613C25.2863 3.4385 25.6127 3.36003 25.9817 3.31465Z" fill="white"/>
<path d="M22.1036 0.826685C22.4327 0.825424 22.7819 0.871442 23.091 0.988855C23.4415 1.12199 23.7713 1.36473 24.0907 1.56139L25.7419 2.57162C25.3063 2.65021 24.8979 2.73927 24.4948 2.92995C24.1403 3.09759 23.803 3.34103 23.4646 3.54193L21.0542 4.9909L17.6674 7.04092L16.511 7.73385C16.1452 7.94813 15.7766 8.15196 15.4362 8.4067C15.1281 8.63738 14.8401 8.91264 14.567 9.18338C13.4918 10.2494 12.669 11.6789 12.3092 13.1472C12.0627 14.1537 12.091 15.1352 12.092 16.1609L12.094 18.5875L12.09 25.5052L12.0925 26.0333L8.98969 24.1777L8.99161 16.7976L8.99117 14.0236C8.99117 12.9898 8.95549 11.9738 9.19253 10.959C9.4991 9.64666 10.1885 8.39413 11.0783 7.38441C11.4345 6.98024 11.8407 6.59792 12.2837 6.28957C12.8146 5.91996 13.4033 5.6016 13.961 5.27116L16.9763 3.47564L19.8927 1.72424C20.2432 1.51591 20.5788 1.25094 20.9485 1.0825C21.3182 0.914074 21.7013 0.852773 22.1036 0.826685Z" fill="white"/>
<path d="M29.5817 15.2891L37.1826 19.7259L15.4965 32.6444L8.53279 28.5595L3.67725 25.7301L8.27366 22.9831L8.27528 23.8605C8.2019 23.9197 8.13622 23.9765 8.10353 24.0671C8.04079 24.241 8.08203 24.5483 8.08193 24.7363L8.07987 26.3495C8.07982 26.4939 8.0406 26.809 8.1105 26.9327C8.14069 26.9861 8.18683 27.0258 8.23724 27.06C8.43005 27.191 8.6563 27.294 8.85844 27.4147L11.4475 28.9397C11.6898 29.0789 12.0086 29.3257 12.2759 29.3888C12.5012 29.3004 12.7012 29.1622 12.9051 29.0347L13.5818 28.6264L17.2815 26.3865L26.4643 20.9262L28.7153 19.5788C29.0066 19.4038 29.3945 19.228 29.6447 19.0032C29.7498 18.9088 29.7675 18.8193 29.7701 18.6829L29.7738 16.9456C29.7738 16.6786 29.8112 16.3412 29.7566 16.0829C29.7337 15.9749 29.6783 15.9084 29.6015 15.8313L29.5798 15.81L29.5817 15.2891Z" fill="white"/>
<path d="M15.6939 29.7525C15.8281 29.7478 15.9604 29.772 16.0816 29.8286C16.178 29.8738 16.3015 29.9687 16.3324 30.0725C16.3561 30.1521 16.345 30.2482 16.2985 30.3188C16.1867 30.4887 15.9784 30.5441 15.787 30.5783C15.5982 30.5803 15.3996 30.5469 15.2496 30.4266C15.1758 30.3674 15.1291 30.2891 15.1202 30.1963C15.1114 30.1036 15.1396 30.0206 15.2022 29.9498C15.3269 29.8089 15.5139 29.7721 15.6939 29.7525Z" fill="#17161E"/>
<path d="M32.4595 19.0218C32.6925 18.9939 32.9159 19.0033 33.1333 19.1068C33.2719 19.1728 33.4273 19.2821 33.4788 19.4473C33.5206 19.5811 33.5147 19.7155 33.4511 19.8396C33.3401 20.0562 33.1471 20.1546 32.9431 20.227C32.7078 20.2726 32.4543 20.2457 32.2386 20.1286C32.0986 20.0526 31.9405 19.9167 31.8934 19.745C31.8626 19.6327 31.8588 19.5177 31.9137 19.4147C32.0307 19.1956 32.2472 19.0872 32.4595 19.0218Z" fill="#17161E"/>
<path d="M3.26855 26.4463L15.118 33.5459L15.1002 45.8305L15.0551 45.8678L3.29017 38.8375L3.26855 26.4463Z" fill="white"/>
<path d="M34.6736 21.9009L34.7146 21.9041C34.7385 22.0045 34.7281 22.1155 34.7283 22.2188L34.7288 22.8244L34.7303 25.0039L34.7312 34.457L16.0003 45.8678L15.9391 45.8543L15.9355 33.395C16.0235 33.2987 16.1896 33.2212 16.3029 33.1502L17.0937 32.6545L19.8264 30.967L28.5904 25.5815L34.6736 21.9009Z" fill="white"/>
<path d="M26.3295 28.1127L26.6973 28.0991C27.2082 28.1142 27.6831 28.3554 28.0309 28.7545C28.8961 29.7471 28.6225 31.3741 28.2263 32.5206C28.0889 32.9183 27.8557 33.3314 27.7736 33.7433C27.7161 34.0316 27.7447 34.395 27.7429 34.6921L27.7285 36.7701L23.9842 39.2449C23.7969 39.3776 23.5409 39.6023 23.3258 39.6608C23.2364 39.6852 23.1441 39.6552 23.0708 39.5989C22.9971 39.5423 22.9461 39.4631 22.9255 39.3682C22.8812 39.164 22.9119 38.8973 22.9119 38.6856L22.9135 36.8873C22.9132 36.6093 22.9395 36.2944 22.899 36.02C22.8739 35.8496 22.5532 35.5815 22.4537 35.4187C22.261 35.1035 22.1549 34.7435 22.1014 34.3737C21.9021 32.9962 22.5385 31.3539 23.2959 30.2665C24.053 29.1794 25.0428 28.3135 26.3295 28.1127Z" fill="#17161E"/>
<path d="M26.5239 28.9369L26.8048 28.9258C27.1465 28.9264 27.4651 29.0721 27.7037 29.3075C28.5125 30.1052 28.1565 31.5676 27.7945 32.4949C27.633 32.9087 27.3837 33.3373 27.307 33.7759C27.248 34.1129 27.2724 34.4755 27.2705 34.8169L27.2627 36.5028L23.8972 38.5428L23.4018 38.8431L23.4029 37.0682C23.4024 36.7608 23.4341 36.4121 23.3863 36.1095C23.3682 35.9949 23.3284 35.8753 23.2753 35.771C23.1504 35.5259 22.942 35.3457 22.7813 35.1259C22.6473 34.9427 22.5553 34.6968 22.5167 34.4751C22.3045 33.2577 22.9004 31.8692 23.6072 30.8941C24.3076 29.9274 25.3045 29.1457 26.5239 28.9369Z" fill="white"/>
</svg>
