<svg width="43" height="50" viewBox="0 0 43 50" fill="none" xmlns="http://www.w3.org/2000/svg">
<path d="M13.115 0.010719C12.891 -0.0125888 12.6577 0.0015386 12.4396 0.0587563C12.3139 0.091715 12.1794 0.137602 12.0688 0.206853L10.9017 1.01673L7.03127 3.63571L4.2593 5.47177C3.83224 5.75639 3.38148 6.02979 2.97343 6.3418C2.85168 6.4349 2.76174 6.57689 2.7042 6.71842C2.57878 7.02728 2.58949 7.3302 2.59117 7.65772L2.59555 8.50768L2.59835 10.4612C2.59769 10.5255 2.61848 10.7706 2.59398 10.819C2.58057 10.8455 2.41071 10.9388 2.37316 10.9641L1.38419 11.642C0.982967 11.9146 0.469276 12.1619 0.218136 12.5974C0.113968 12.778 0.0268745 12.9979 0.0134735 13.2075C-0.022049 13.7622 0.0239182 14.3441 0.0236626 14.9022L0.0184669 18.2199L0.0207062 19.2457C0.0221863 19.4539 0.00878143 19.6851 0.0638733 19.8866C0.260025 20.6034 0.727142 20.8929 1.31514 21.2753L2.34431 21.9602C2.38447 21.9891 2.56783 22.1034 2.58001 22.1319C2.58954 22.1543 2.57782 22.2632 2.57746 22.2927L2.57619 22.8194L2.56691 26.5126L2.56426 27.6714C2.56498 27.9595 2.55988 28.2662 2.61069 28.5503C2.82718 29.761 3.55267 30.9569 4.43135 31.7896C4.83792 32.1749 5.28568 32.4595 5.74377 32.7729L7.48743 33.9533L12.1338 37.1186L22.495 44.1751L30.2665 49.4638C30.6612 49.7221 31.0486 49.8786 31.512 49.9584C31.9818 50.0392 32.5998 50.009 33.0409 49.8083C33.2674 49.7052 33.4613 49.501 33.6638 49.3547L34.9662 48.4516L40.8322 44.4148C41.0045 44.2951 41.208 44.2329 41.3985 44.149C41.5824 44.0679 41.7599 43.9646 41.9229 43.846C42.4612 43.4542 42.8493 42.878 42.956 42.2098C43.0149 41.8409 42.988 41.443 42.9888 41.0694L42.9914 39.2209L42.9941 32.3817L42.9947 25.5995L42.9945 23.5598C42.9944 23.1699 43.0174 22.7618 42.9701 22.3745C42.8569 21.448 42.5021 20.5869 41.9646 19.8331C41.6626 19.4094 41.3304 18.9883 40.9148 18.6746L39.5268 17.7233L37.5102 16.351L29.2454 10.7381L19.2296 3.93503L16.072 1.78252L13.8962 0.306634C13.6472 0.148674 13.4052 0.0583065 13.115 0.010719Z" fill="#17161E"/>
<path d="M2.6084 12.9272C2.41887 13.0036 2.22843 13.1653 2.07177 13.2973L2.26374 13.4675L2.60626 13.7151L2.6084 12.9272Z" fill="#E3FE0F"/>
<path d="M2.621 11.644L1.61017 12.3107C1.30088 12.5254 0.797991 12.8045 0.731078 13.2079C0.683632 13.4939 0.798552 13.7385 0.993022 13.9403C1.18591 14.1404 1.44587 14.2953 1.67464 14.4503L2.90969 15.2776L8.48823 19.0351L10.2006 20.1944C10.4738 20.3825 10.7653 20.562 11.0199 20.7753C11.3289 21.0341 11.6077 21.3507 11.8421 21.6797C12.5187 22.6295 13.0332 23.8668 12.8406 25.057C12.8298 25.1219 12.8126 25.1834 12.8345 25.2474L12.8755 25.2151C13.1614 24.9801 13.2942 24.5935 13.3211 24.2323C13.4167 22.9497 12.5795 21.5981 11.7215 20.7302C11.3729 20.3776 10.9396 20.1432 10.5285 19.8757L9.35076 19.0901L3.59228 15.2119L2.462 14.4724C2.14394 14.2638 1.79883 14.0557 1.55365 13.7575C1.43328 13.6111 1.35694 13.4434 1.38471 13.2496C1.46319 12.7025 2.21763 12.356 2.6241 12.0759L2.621 11.644Z" fill="#E3FE0F"/>
<path d="M3.36063 28.6064C3.44834 28.9824 3.56698 29.3501 3.73862 29.6954C4.10539 30.4333 4.61266 31.0619 5.25559 31.57C5.72821 31.9434 6.24935 32.2653 6.74623 32.6049L9.57017 34.5267L18.2887 40.447L27.0065 46.377L29.666 48.1816C30.1455 48.5025 30.661 48.949 31.2071 49.1283C31.7958 49.3216 32.3729 49.3201 32.9304 49.0345L32.9897 48.9943C32.9915 48.9927 33.031 48.9494 33.0335 48.9424C33.053 48.8878 33.0348 48.7566 33.0354 48.6908L33.0454 47.9231C32.6651 48.036 32.2644 48.0934 31.8689 48.0368C31.5022 47.9845 31.132 47.8448 30.8158 47.6514L29.3043 46.6352L26.2757 44.582L19.3096 39.8619L17.6741 38.7315L9.66374 33.2797L5.94541 30.7618C5.51208 30.4641 5.0465 30.1914 4.62765 29.8752C4.15625 29.5193 3.71079 29.0864 3.36063 28.6064Z" fill="#E3FE0F"/>
<path d="M0.70268 14.6357C0.670472 14.9271 0.69621 15.2551 0.695955 15.5501L0.695189 17.4138L0.696107 18.9174C0.696362 19.1392 0.671849 19.3903 0.7037 19.607C0.736162 19.8278 0.820402 20.0307 0.981595 20.1857C1.18952 20.3856 1.48658 20.5377 1.72645 20.6996L3.34296 21.7962L8.05866 25.0126L10.6155 26.7732C10.9383 26.6493 11.2659 26.4264 11.5365 26.2101C11.613 26.1371 11.6819 26.0627 11.7456 25.9782C12.1204 25.4811 12.254 24.8234 12.1685 24.2089C12.0384 23.2742 11.5811 22.3514 10.949 21.6629C10.5731 21.2535 10.1519 21.0111 9.70019 20.7029L8.15482 19.6585L2.91957 16.131L1.59645 15.233C1.29593 15.0348 0.990359 14.854 0.70268 14.6357Z" fill="#E3FE0F"/>
<path d="M8.72856 21.5374C8.55498 21.5179 8.34512 21.509 8.18444 21.5866C8.02059 21.6656 7.88524 21.8387 7.82719 22.011C7.70295 22.38 7.84223 22.8476 8.00352 23.1853C8.21883 23.6362 8.56451 24.0102 9.0383 24.1747C9.22808 24.1777 9.38367 24.1541 9.55862 24.0762C9.76593 23.9838 9.88574 23.8282 9.96229 23.6134C10.0883 23.2597 9.98369 22.8379 9.81929 22.5141C9.58649 22.0557 9.21351 21.6948 8.72856 21.5374Z" fill="#17161E"/>
<path d="M40.4865 22.9077L37.5337 24.7648L37.5603 45.8043L40.5967 43.6726L40.5904 29.074L40.5881 25.411C40.5868 24.592 40.6562 23.7096 40.4865 22.9077Z" fill="#E3FE0F"/>
<path d="M12.9791 0.682889C12.5064 0.656252 12.2408 0.941084 11.8741 1.19371C12.1239 1.38985 12.4009 1.56125 12.661 1.74399L14.6995 3.14027L19.9088 6.68801L32.9882 15.5735L37.1628 18.3726L38.245 19.1085C38.7002 19.4123 39.1521 19.7089 39.5392 20.1017C40.3145 20.8885 40.9814 21.9153 41.2004 23.0192C41.264 23.3399 41.2586 23.6578 41.2593 23.9828L41.2608 25.1545L41.2615 28.9335L41.2631 43.4269L41.5424 43.2403C41.9486 42.9531 42.245 42.5181 42.3281 42.0185C42.378 41.7184 42.3493 41.3905 42.3482 41.0859L42.3514 39.6418L42.3436 33.6839L42.3394 26.0769L42.3381 23.8221C42.3377 23.4176 42.3644 22.9867 42.3152 22.586C42.2081 21.7135 41.8731 20.8827 41.3643 20.1707C41.144 19.8623 40.8664 19.515 40.5673 19.2792C40.1289 18.9335 39.6305 18.6338 39.1674 18.3213L36.814 16.7248L30.0417 12.1251L18.0082 3.95109L15.2145 2.04743L13.5778 0.920966C13.3816 0.794088 13.211 0.719621 12.9791 0.682889Z" fill="#E3FE0F"/>
<path d="M5.26283 5.72802C5.11111 5.7029 4.76692 6.00907 4.63187 6.10749C4.93973 6.15644 5.26135 6.24055 5.52834 6.4088L6.44789 7.05138L7.58225 7.81978L12.579 11.2181L14.8348 12.723L23.7491 18.7871L29.7991 22.9086C30.4746 23.3851 31.2499 23.8096 31.8382 24.3939C32.7024 25.252 33.3753 26.3543 33.6341 27.56C33.7293 28.0037 33.7302 28.4436 33.7308 28.8946L33.7332 30.1206L33.7385 33.6791L33.7301 48.4224L36.2201 46.72L36.8555 46.2791L36.8516 25.2323L34.7879 26.5282L34.3358 26.8171C34.2517 26.8716 34.1509 26.9519 34.0513 26.9708C33.9272 26.9944 33.8093 26.9118 33.7458 26.8098C33.6382 26.6367 33.5977 26.3548 33.5252 26.1575C33.3748 25.7482 33.1709 25.3609 32.9329 24.9974C32.6754 24.6042 32.3604 24.2325 32.0004 23.9309C31.7193 23.6953 31.4086 23.4917 31.1072 23.2841L29.827 22.4017L25.3715 19.351L17.4088 13.9476L12.2433 10.4364L7.77713 7.41519L6.03429 6.24856L5.26283 5.72802Z" fill="#E3FE0F"/>
<path d="M8.22274 3.69531L5.85775 5.26498L8.12244 6.79883L11.9767 9.41304L26.0722 18.9898L30.6222 22.1012L31.7026 22.8467C31.9575 23.0221 32.2256 23.1942 32.4551 23.4033C33.007 23.9063 33.4805 24.5213 33.831 25.1844C33.9172 25.3475 33.9926 25.5159 34.0562 25.6893C34.0957 25.7968 34.1333 25.9848 34.2132 26.0643L34.2741 26.0345L36.7227 24.5008C36.4191 23.5639 35.8708 22.6825 35.1331 22.0347C34.8187 21.7587 34.4306 21.5355 34.0839 21.3016L32.3356 20.1058L25.6617 15.5486L19.6034 11.4069L14.2313 7.77374L8.22274 3.69531Z" fill="#E3FE0F"/>
<path d="M11.2612 1.64111C10.8936 1.83811 10.5519 2.10481 10.207 2.33981L8.86761 3.25712L12.075 5.45157L15.5666 7.82195L27.9301 16.2458L33.0337 19.7429L34.717 20.8926C35.0376 21.1145 35.3811 21.3314 35.672 21.5917C36.4219 22.2626 36.9351 23.1517 37.3086 24.0814L37.5772 23.9163C37.8338 23.7604 40.1679 22.3304 40.1934 22.2362C39.8654 21.5125 39.3752 20.8454 38.7663 20.3386C38.3681 20.0072 37.9163 19.7325 37.4874 19.4436L35.414 18.0477L29.6957 14.1767L16.9759 5.55319L13.2775 3.03011L11.2612 1.64111Z" fill="#E3FE0F"/>
<path d="M4.39816 6.72903C4.20843 6.70763 4.01391 6.70571 3.82698 6.75006C3.64143 6.79416 3.49191 6.85877 3.39273 7.02941C3.35212 7.09929 3.33474 7.1729 3.32597 7.25292C3.29071 7.57439 3.31456 7.92424 3.3142 8.24809L3.31451 10.2896L3.31441 13.4334L3.31415 13.988C3.31415 14.0316 3.30054 14.151 3.3141 14.1878C3.33907 14.2558 11.0425 19.3106 11.741 19.832C11.935 19.9768 12.1111 20.1457 12.2808 20.3188C13.0552 21.1086 13.6844 22.1606 13.9392 23.2494C14.1018 23.9437 14.1039 24.7019 13.721 25.3246C13.604 25.5149 13.4602 25.6982 13.2915 25.844C12.9828 26.1109 12.5857 26.3251 12.2451 26.551L11.4802 27.0767C11.2901 27.2083 11.0647 27.3829 10.8352 27.4309C10.6577 27.468 10.4515 27.4534 10.2864 27.3741C10.0628 27.2666 9.84867 27.0846 9.64432 26.9416L8.61448 26.2388L3.27358 22.6056L3.27287 24.9579C3.27089 25.5197 3.23516 26.1097 3.3458 26.6625C3.52717 27.5694 4.03546 28.3781 4.69893 29.002C4.9777 29.2641 5.29712 29.4661 5.61242 29.6788L6.54339 30.3195L10.0097 32.682L22.4698 41.1409L28.5087 45.2435L30.1136 46.3306C30.479 46.5852 30.86 46.9055 31.2562 47.1048C31.8592 47.4082 32.4175 47.3523 33.0332 47.1473L33.0483 43.3623L33.0458 35.3587L33.0494 30.6434L33.0523 29.0679C33.0522 28.7545 33.0685 28.4297 33.0299 28.1189C32.9286 27.305 32.618 26.5575 32.1749 25.8762C31.8557 25.3856 31.467 24.9419 31.0016 24.5885L29.5274 23.5674L26.095 21.2219L16.294 14.5737L8.27212 9.13988L6.2445 7.76281C5.90128 7.52415 5.56325 7.24812 5.20962 7.02941C4.95986 6.87495 4.68247 6.78842 4.39816 6.72903Z" fill="#E3FE0F"/>
</svg>
