<svg width="48" height="50" viewBox="0 0 48 50" fill="none" xmlns="http://www.w3.org/2000/svg">
<path d="M19.2541 0.0012091C19.2616 0.00081976 19.269 -0.000232421 19.2765 4.64271e-05C19.4557 0.00677562 19.6526 0.166656 19.7992 0.259638L20.379 0.61547L24.2236 2.96992L31.1305 7.19708L35.7557 10.0369L40.033 12.7121L45.2224 15.9236L46.7735 16.8914C47.0758 17.0754 47.4219 17.2423 47.6988 17.4612C47.8626 17.5908 47.9284 17.7229 47.9504 17.9294C48.0003 18.4004 47.9601 18.9171 47.961 19.3936L47.9635 22.4029L47.9703 32.0672L47.976 36.3147C47.978 36.9902 48.0227 37.6918 47.9847 38.3646C47.9799 38.4506 47.9507 38.518 47.8941 38.5826C47.7739 38.7195 47.5774 38.8139 47.4216 38.9061L46.6181 39.3852L41.2904 42.6442L33.0405 47.6398L30.6104 49.098L29.3252 49.8725C29.1429 49.9726 28.9605 49.9879 28.7582 50C28.6199 49.9803 28.497 49.9535 28.3705 49.8917C28.1274 49.773 27.8937 49.6136 27.6624 49.4726L26.5027 48.7651L23.1346 46.6932L14.4226 41.3563L12.5522 40.1892L3.5728 34.7126L1.45395 33.4351C1.06311 33.2044 0.598406 32.983 0.247049 32.699C0.151222 32.6216 0.0716868 32.5382 0.0365578 32.4172C-0.0157477 32.2369 0.0275842 31.9183 0.0278148 31.7236L0.0281032 29.7618L0.0152928 20.3792L0.00868323 14.5553L0.00824814 12.7053C0.00832677 12.4091 -0.0125398 12.0954 0.0118072 11.8009C0.021284 11.6863 0.064249 11.5624 0.122472 11.4637C0.181503 11.3637 0.267213 11.2784 0.362347 11.2128C0.824564 10.8942 1.3574 10.6293 1.84358 10.3458L4.6208 8.69549L15.4903 2.2073L18.0974 0.640861L18.7802 0.234916C18.9329 0.144658 19.0805 0.0452619 19.2541 0.0012091Z" fill="#17161E"/>
<path d="M46.6518 19.1523C46.6896 19.1558 46.6703 19.1493 46.707 19.1787L46.7315 37.8502L29.3333 48.4522L29.3232 29.4274L46.6518 19.1523Z" fill="#E3FE0F"/>
<path d="M1.2926 13.0195L28.101 29.4207L28.1046 48.3075L1.28076 31.8464L1.2926 13.0195Z" fill="#E3FE0F"/>
<path d="M19.2399 1.3999L46.2044 17.9627C46.103 18.0666 45.9231 18.1371 45.7951 18.2124L44.7644 18.817L41.0273 21.0141L28.721 28.3595L1.78662 11.8234C2.00771 11.6544 2.2863 11.5234 2.52734 11.3837L3.54237 10.7747L7.67796 8.31009L19.2399 1.3999Z" fill="#E3FE0F"/>
<path d="M28.148 19.7289L28.1568 19.7263C28.4454 19.6963 28.7476 19.7034 29.0372 19.7095C30.1823 19.7337 31.4592 20.0066 32.3592 20.7609C32.7159 21.0599 32.9878 21.4274 33.024 21.9058C33.0443 22.1734 33.0315 22.451 33.0307 22.7195C33.0299 23.0153 33.0502 23.3374 32.9695 23.6244C32.9192 23.8033 32.8189 23.9603 32.6994 24.1003C31.9687 24.9561 30.534 25.2917 29.4694 25.3798C29.0612 25.4245 28.6172 25.4113 28.2078 25.3785C27.1576 25.2943 25.9741 25.0699 25.1305 24.3935C24.8481 24.1671 24.5999 23.8454 24.5703 23.4713C24.5436 23.1347 24.5629 22.7821 24.5634 22.4439C24.5637 22.2186 24.5371 21.9693 24.5841 21.7489C24.6361 21.5051 24.7657 21.2646 24.9237 21.0739C25.6745 20.1666 27.0297 19.8315 28.148 19.7289Z" fill="#17161E"/>
<path d="M28.3168 20.2858C29.4455 20.1865 30.9464 20.3678 31.8601 21.0904C32.0964 21.2773 32.4213 21.6053 32.4515 21.918C32.4817 22.2303 32.395 22.5038 32.1944 22.7435C31.5215 23.5475 30.2576 23.8162 29.2669 23.8974C28.105 23.9444 26.6586 23.7886 25.7122 23.0487C25.439 22.835 25.1479 22.526 25.1182 22.1615C25.098 21.9148 25.2381 21.6106 25.3907 21.4266C26.0654 20.6131 27.3278 20.3861 28.3168 20.2858Z" fill="#E3FE0F"/>
<path d="M18.5816 3.4188C19.9138 3.30212 21.6187 3.54845 22.6881 4.39936C23.0428 4.68157 23.363 5.08054 23.4094 5.54753C23.439 5.84632 23.4283 6.15757 23.4295 6.45831C23.4305 6.71985 23.4491 7.02032 23.3814 7.27486C23.3279 7.47611 23.2136 7.66699 23.0812 7.82656C22.3154 8.74965 20.9621 9.0364 19.828 9.13999C18.4138 9.20013 16.8373 9.04492 15.6884 8.1234C15.3425 7.84598 14.9939 7.44522 14.9467 6.98565C14.9239 6.76262 14.933 6.53039 14.9302 6.306C14.923 5.72099 14.9138 5.23501 15.3207 4.7626C16.124 3.83014 17.4095 3.51783 18.5816 3.4188Z" fill="#17161E"/>
<path d="M18.8719 3.94495L18.8993 3.94184C20.0152 3.86445 21.4959 4.15392 22.3652 4.88861C22.608 5.09375 22.841 5.38349 22.8643 5.71306C22.8841 5.99327 22.7484 6.26518 22.5678 6.47205C21.8054 7.34516 20.557 7.55403 19.4636 7.6379C18.3431 7.66573 17.0429 7.49164 16.1261 6.79167C15.8448 6.57685 15.5078 6.23056 15.4731 5.86111C15.4476 5.58889 15.5957 5.31951 15.7659 5.11921C16.5103 4.2431 17.7925 4.02871 18.8719 3.94495Z" fill="#E3FE0F"/>
<path d="M28.1071 9.31139L28.1449 9.30623C29.4713 9.19643 31.0669 9.44292 32.1235 10.3071C32.4872 10.6046 32.8337 11.0135 32.8736 11.5034C32.898 11.8018 32.8785 12.1162 32.8759 12.416C32.8741 12.6175 32.896 12.8489 32.8471 13.0444C32.7835 13.299 32.6347 13.5557 32.4618 13.7508C31.6347 14.6849 30.2564 14.9773 29.0661 15.0406C27.8381 15.1309 26.3912 14.8999 25.3387 14.2298C24.9386 13.9751 24.4787 13.5497 24.3795 13.059L24.3728 13.0231L24.3469 12.859C24.3286 12.6472 24.3373 12.4274 24.3356 12.2145C24.3313 11.6418 24.3388 11.1935 24.7276 10.7344C25.5459 9.76844 26.9012 9.42498 28.1071 9.31139Z" fill="#17161E"/>
<path d="M28.368 9.86404L28.3758 9.8632C29.5237 9.79796 30.916 10.0084 31.813 10.781C32.0598 10.9935 32.2955 11.273 32.3149 11.6125C32.3327 11.9245 32.1545 12.222 31.9472 12.444C31.1906 13.2542 29.9225 13.5057 28.8655 13.5434C27.7177 13.5558 26.3434 13.3577 25.4312 12.5984C25.1862 12.3944 24.9319 12.0778 24.908 11.7479C24.8887 11.4804 25.028 11.2258 25.1999 11.0318C25.9628 10.1706 27.2795 9.93338 28.368 9.86404Z" fill="#E3FE0F"/>
<path d="M19.1067 14.2052L19.1289 14.2028C20.4742 14.0947 22.0794 14.4384 23.1222 15.3303C23.467 15.6252 23.7399 16.0148 23.7687 16.4825C23.7833 16.7201 23.7696 16.9674 23.7698 17.2059C23.7699 17.4616 23.7927 17.7561 23.7441 18.0077C23.7008 18.2323 23.5369 18.4914 23.3864 18.6579C22.5719 19.5596 21.1213 19.876 19.9589 19.933C18.6319 20.0067 16.9097 19.7903 15.8494 18.9197C15.5322 18.6592 15.2572 18.3198 15.2215 17.8948C15.2015 17.657 15.217 17.4053 15.2198 17.1662C15.2265 16.5745 15.2021 16.1008 15.6115 15.6262C16.4625 14.6397 17.8603 14.2885 19.1067 14.2052Z" fill="#17161E"/>
<path d="M18.9213 14.7827L18.9263 14.7812C20.1108 14.6734 21.5943 14.9016 22.5687 15.6205C22.849 15.8273 23.1668 16.1493 23.2159 16.5092C23.2562 16.8045 23.1253 17.0577 22.9472 17.2811C22.2936 18.101 21.0847 18.3626 20.101 18.4709C18.9293 18.5921 17.4249 18.3728 16.4604 17.6649C16.1438 17.4325 15.8694 17.1202 15.8186 16.7171C15.7838 16.4406 15.9016 16.1678 16.073 15.9561C16.7122 15.1662 17.9646 14.8762 18.9213 14.7827Z" fill="#E3FE0F"/>
<path d="M10.2005 8.4707C11.543 8.49838 13.0421 8.73966 14.0543 9.70763C14.3318 9.97301 14.5452 10.3348 14.5521 10.7277L14.5461 11.5622C14.5422 12.1533 14.547 12.6024 14.11 13.0494C13.1984 13.9819 11.6326 14.2342 10.3898 14.2482C9.08226 14.2544 7.55251 14.0086 6.5553 13.0903C6.25931 12.8177 6.03544 12.5207 6.0216 12.102L6.013 11.2653C6.01044 10.6756 6.014 10.2398 6.43899 9.78008C7.38456 8.75729 8.88198 8.52842 10.2005 8.4707Z" fill="#17161E"/>
<path d="M9.86979 9.04815C10.9541 8.95029 12.3686 9.17852 13.2745 9.80803C13.5679 10.0119 13.9479 10.3723 13.9973 10.7472C14.0299 10.995 13.883 11.2986 13.7247 11.483C13.0471 12.2725 11.74 12.4965 10.76 12.5626C9.73801 12.6231 8.60494 12.5126 7.67331 12.0621C7.46883 11.9633 7.25639 11.8558 7.07928 11.7116C6.8203 11.5006 6.59412 11.2029 6.57006 10.8586C6.55313 10.6156 6.71609 10.3363 6.867 10.1592C7.55411 9.35283 8.8731 9.12107 9.86979 9.04815Z" fill="#E3FE0F"/>
<path d="M37.327 14.6519C38.679 14.5442 40.2319 14.8233 41.3143 15.6811C41.6454 15.9435 41.9446 16.3357 41.9889 16.7701C42.0216 17.0889 41.9965 17.4337 41.9958 17.7555C41.9952 17.9881 42.0271 18.2799 41.9683 18.5052C41.9104 18.7275 41.7892 18.9411 41.6392 19.1139C40.7915 20.0902 39.349 20.3622 38.1252 20.4519C36.7368 20.4627 35.0991 20.2986 34.0012 19.3489C33.7139 19.1004 33.4206 18.7255 33.3984 18.3316C33.3836 18.0692 33.3932 17.8003 33.3934 17.5373C33.3938 16.9123 33.3823 16.4537 33.8227 15.9538C34.681 14.9797 36.0987 14.7274 37.327 14.6519Z" fill="#17161E"/>
<path d="M37.2944 15.2046L37.3169 15.202C37.6413 15.1732 37.9862 15.1935 38.3101 15.2211C39.1895 15.2961 40.2085 15.5095 40.9033 16.0921C41.1751 16.3198 41.394 16.6078 41.4189 16.9749C41.4394 17.2776 41.3028 17.5445 41.1084 17.7677C40.4286 18.5482 39.136 18.7906 38.163 18.8559C37.4631 18.9216 36.7221 18.833 36.0431 18.6639C35.5796 18.5485 35.1142 18.3906 34.7159 18.1194C34.4352 17.9283 34.019 17.519 33.9733 17.1654C33.9336 16.8582 34.0448 16.5889 34.2417 16.356C34.9593 15.5075 36.2507 15.279 37.2944 15.2046Z" fill="#E3FE0F"/>
</svg>
