<svg width="54" height="45" viewBox="0 0 54 45" fill="none" xmlns="http://www.w3.org/2000/svg">
<path d="M17.5865 0.0121475C17.2724 -0.0217535 17.0343 0.011006 16.7554 0.165183C16.5115 0.299983 16.281 0.474407 16.0523 0.633123L14.8046 1.50486L10.3818 4.53323L5.67024 7.74473L4.41853 8.62631L1.72752 10.4641C1.23003 10.8036 0.703449 11.1267 0.23 11.4972C0.148281 11.5612 0.0675125 11.6291 0.0403633 11.7322L0.0336609 11.761C-0.0233459 11.9929 0.00944901 12.2845 0.00883865 12.5264L0.00740051 14.1029L0.00357819 19.8657C0.00490952 19.9564 -0.00661469 20.103 0.0408058 20.18C0.0946007 20.2673 0.172714 20.3335 0.256424 20.3923L4.59127 23.3609L6.86971 24.9536L20.8432 34.4974L31.0673 41.4881L34.3054 43.6848L35.8838 44.7636C36.0585 44.8738 36.2292 44.9371 36.4293 44.9879C36.6776 45.0158 36.9186 44.9992 37.1501 44.8974C37.4073 44.7842 37.6451 44.5745 37.8792 44.4178L39.5049 43.3373L44.5162 39.9741L50.1882 36.1824L52.2556 34.8072C52.6057 34.5762 52.9925 34.363 53.3216 34.1054C53.5807 33.9024 53.7552 33.6289 53.8686 33.3259C53.9334 33.1531 53.9812 32.9809 53.9893 32.7959L53.9832 31.3795L53.983 28.5171L53.9896 26.4903C53.9916 26.1284 54.0126 25.754 53.9885 25.3934C53.9749 25.1896 53.9194 24.9899 53.8284 24.8061C53.7084 24.5639 53.5274 24.396 53.3073 24.2412L50.7722 22.5194L45.0671 18.6509L27.6866 6.81966L21.4023 2.5207L19.2961 1.07383L18.476 0.509357C18.1852 0.309223 17.9275 0.12246 17.5865 0.0121475Z" fill="#17161E"/>
<path d="M53.2495 25.3862C52.9812 25.4839 52.6978 25.6712 52.4964 25.8705C52.4453 25.9211 52.3508 26.0261 52.3275 26.0907C52.2894 26.1966 52.3111 26.377 52.3108 26.4919L52.3104 27.4214C52.4421 27.4073 52.56 27.4089 52.6843 27.4574C52.7435 27.5153 52.7826 27.5569 52.7934 27.6408C52.8276 27.9072 52.8008 28.2108 52.8 28.4806C52.7994 28.6792 52.8256 28.9299 52.7765 29.1208C52.7625 29.175 52.7297 29.2218 52.6943 29.2647C52.6174 29.3581 52.5019 29.4657 52.3746 29.4735C52.2812 29.4791 52.2016 29.4569 52.1351 29.3903C52.0909 29.346 52.0544 29.2785 52.0424 29.2175C52.0175 29.09 52.0337 28.9305 52.0337 28.7996L52.0383 27.9171L41.0912 35.4432L38.2426 37.4051C38.1828 37.447 37.8131 37.6729 37.7966 37.7171C37.7812 37.7581 37.7975 37.8898 37.7978 37.9416L37.801 38.6293L37.8025 41.6923C37.8017 42.1704 37.8344 42.6761 37.7953 43.1514C37.7913 43.1997 37.7777 43.2426 37.7475 43.281C37.6822 43.3644 37.567 43.4046 37.4631 43.4111C37.3445 43.4183 37.2157 43.3664 37.134 43.2819C37.0907 43.2371 37.0569 43.1858 37.0487 43.1237C37.0278 42.9648 37.0421 42.7868 37.0417 42.6257L37.0393 41.6837L37.0322 38.5048L37.0281 38.2003L36.1274 38.849L36.1109 42.415V43.3324C36.1114 43.4963 36.0975 43.6775 36.1259 43.8392C36.1442 43.9428 36.2011 44.0405 36.2759 44.1151C36.3726 44.2115 36.5092 44.2266 36.6412 44.2282C36.7538 44.2296 36.8412 44.2002 36.9388 44.1465C37.1138 44.0499 37.2808 43.9167 37.4451 43.8029L38.3433 43.1973L42.6595 40.3096L50.2728 35.2191L52.3159 33.8728C52.547 33.7174 52.8346 33.5669 53.0329 33.3744C53.1572 33.2537 53.2253 33.0719 53.2497 32.9043C53.2894 32.6308 53.2653 32.3219 53.2642 32.0451L53.2568 30.4332L53.2495 25.3862Z" fill="white"/>
<path d="M52.5535 30.2688C52.5082 30.2623 52.4596 30.2592 52.4144 30.2688C52.3058 30.292 52.173 30.4115 52.1131 30.4991C52.0785 30.5497 52.0586 30.6025 52.0512 30.6629C52.0136 30.97 52.0405 31.3029 52.0405 31.6138C52.0404 31.9764 52.0056 32.3729 52.0643 32.7284C52.1225 32.8255 52.1831 32.8465 52.2869 32.8886C52.3535 32.8898 52.421 32.8901 52.4838 32.8658C52.6145 32.8151 52.7259 32.6696 52.7763 32.5444C52.8288 32.4135 52.8323 30.5522 52.7716 30.443C52.7166 30.3438 52.6603 30.3049 52.5535 30.2688Z" fill="#17161E"/>
<path d="M49.956 29.9971C49.8601 29.9998 49.8098 30.0139 49.7283 30.0636C49.1586 30.4107 48.6169 30.831 48.0677 31.2107L44.6613 33.5554L41.4443 35.7698L40.1188 36.6867C39.7968 36.91 39.4681 37.1235 39.1675 37.3745C39.116 37.6086 39.1534 37.9269 39.152 38.169L39.1432 40.1532L39.1361 41.1309C39.1346 41.2909 39.1146 41.4717 39.1417 41.6282C39.1616 41.7432 39.2174 41.7516 39.3128 41.8124L39.4712 41.8375C39.5426 41.8189 39.5897 41.7954 39.651 41.755L43.6761 39.0376L47.7336 36.3243L49.1928 35.3535C49.496 35.157 49.8556 34.9805 50.1135 34.731C50.1545 34.5161 50.1282 34.2528 50.128 34.0329L50.1269 32.6539L50.1268 31.1017C50.1285 30.7709 50.1536 30.4351 50.1168 30.1058C50.0608 30.0312 50.0413 30.0292 49.956 29.9971Z" fill="#17161E"/>
<path d="M41.9783 36.0527L41.5317 36.4167L41.5323 39.8277L41.9497 39.5184C42.0115 39.4416 41.9799 36.3955 41.9783 36.0527Z" fill="white"/>
<path d="M47.7026 32.1099C47.5518 32.196 47.41 32.3114 47.2693 32.4134L47.2633 35.9896L47.707 35.6943L47.7026 32.1099Z" fill="white"/>
<path d="M44.8311 34.0679L44.3738 34.4163L44.3812 37.9565L44.8252 37.6355L44.8311 34.0679Z" fill="white"/>
<path d="M0.760445 15.3223L0.762657 19.8335L35.3438 43.4804L35.3628 38.9468C35.1358 38.748 34.8096 38.5773 34.5566 38.4029L32.0994 36.7407L23.6232 30.9519L16.0349 25.7578L12.6323 23.3923L8.76466 20.7643L2.70554 16.6238L0.760445 15.3223Z" fill="white"/>
<path d="M4.54006 20.8383C4.46139 20.824 4.39624 20.8239 4.32034 20.8494C4.20849 20.8869 4.1481 20.964 4.09703 21.0646C4.0521 21.1531 4.04151 21.259 4.08013 21.3521C4.10556 21.4134 4.15132 21.4557 4.20312 21.4962C4.49579 21.7253 4.82992 21.9215 5.13528 22.1378L8.65746 24.535L10.2826 25.6452C10.5131 25.8015 10.7329 25.9922 10.9864 26.1107C11.0282 26.1257 11.0592 26.1311 11.1047 26.1313C11.2065 26.1318 11.3 26.0573 11.3643 25.9865C11.4567 25.8843 11.4549 25.7786 11.4506 25.6486C11.399 25.5292 11.3209 25.4669 11.2177 25.3915L8.71895 23.7005L6.01847 21.8494L5.13822 21.2349C4.95168 21.1005 4.75513 20.9247 4.54006 20.8383Z" fill="#17161E"/>
<path d="M17.3962 0.72685L17.3499 0.718262C17.0111 0.846376 16.6647 1.14402 16.3611 1.34432L12.9451 3.6838L4.12677 9.72337L0.741989 12.0438L0.755009 14.3612C0.904755 14.5393 1.25034 14.7146 1.44696 14.8495L3.03251 15.9428L10.0718 20.7316L17.6137 25.9279L30.0805 34.4429L35.7045 38.2665L35.874 38.1373L39.8996 35.3504L47.5737 30.0683L51.1829 27.5739C51.2769 27.5058 51.4743 27.409 51.5381 27.3278C51.5471 27.3163 51.5365 27.1071 51.5363 27.0799C51.5344 26.7768 51.4959 26.4129 51.5763 26.1178C51.7483 25.4868 52.1909 25.1028 52.7446 24.7815C51.9456 24.1714 51.0756 23.6245 50.24 23.062L46.2719 20.3755L39.2497 15.5774L32.2841 10.861L22.6268 4.25583L19.6294 2.2028C18.9098 1.70355 18.173 1.13342 17.3962 0.72685Z" fill="white"/>
<path d="M17.4111 2.52344L12.4957 5.84364L8.06429 8.88728L5.13268 10.9057C4.66493 11.2281 4.15409 11.5347 3.7095 11.8845C3.6556 11.9269 3.59621 11.9821 3.56939 12.0461C3.40065 12.4486 3.86589 12.6328 4.13636 12.8158L12.7058 18.7311L19.0383 23.1154L21.0815 24.5168C21.1858 24.5919 21.3716 24.7026 21.4188 24.8169C21.3576 24.8509 21.3094 24.8761 21.2619 24.9282C21.3507 25.4051 21.4893 25.8783 21.6109 26.3485C21.6552 26.5199 21.6937 26.7938 21.7879 26.9393C22.2981 27.2448 22.7787 27.6092 23.2701 27.9436L26.079 29.8605L32.8926 34.4994L34.3566 35.4989C34.471 35.5765 34.7018 35.7936 34.8375 35.7912L35.8081 35.7955L36.6281 35.8008L45.4736 29.7413L48.6154 27.5863C49.0127 27.3065 49.4642 27.0539 49.8104 26.7158C49.8654 26.4411 49.8389 26.1374 49.8383 25.8581C49.8375 25.4452 49.8493 25.0286 49.82 24.6168C49.6066 24.3878 49.2975 24.2155 49.0365 24.0407L47.7599 23.1825L41.0274 18.6088L25.1921 7.80867L20.027 4.28643L17.4111 2.52344Z" fill="#17161E"/>
<path d="M12.5222 6.73486L11.8416 7.20346L29.4742 19.2573C29.706 19.1349 29.9366 18.9571 30.1479 18.8038L12.5222 6.73486Z" fill="white"/>
<path d="M13.8936 5.81738L13.1806 6.29549L30.8066 18.3314C31.0424 18.2236 31.2882 18.0271 31.4995 17.8773L13.8936 5.81738Z" fill="white"/>
<path d="M6.64855 10.8097L6.6132 10.8018C6.44423 10.8296 6.09997 11.1353 5.95255 11.2442L23.4456 23.3475L24.1523 22.846L6.64855 10.8097Z" fill="white"/>
<path d="M5.32426 11.7609L5.23413 11.7422L4.54938 12.2227L22.0204 24.2278C22.0504 24.2512 22.068 24.2577 22.1035 24.2696L22.7422 23.8019L5.32426 11.7609Z" fill="white"/>
<path d="M11.1587 7.69043C11.0345 7.75082 10.9126 7.84795 10.7979 7.926L10.028 8.45797L8.22878 9.689L7.31219 10.3182L24.8281 22.4304L28.7939 19.7062L11.1587 7.69043Z" fill="white"/>
<path d="M17.4586 3.4449L17.3945 3.43311L14.5798 5.34606C14.7206 5.51886 15.0525 5.69171 15.2432 5.82531L17.6122 7.45921L26.4329 13.4954L30.1873 16.0604L31.8216 17.1677C32.0112 17.2982 32.3557 17.4839 32.4749 17.6741C32.5292 17.7608 32.5369 17.8513 32.5099 17.9484C32.4795 18.0572 32.4141 18.1334 32.3234 18.2L29.6644 20.0036L24.9308 23.237L23.059 24.4902C22.7443 24.7032 22.4332 24.9602 22.093 25.1302L22.0587 25.1471C22.1129 25.3481 22.3433 26.3815 22.442 26.4682C22.5953 26.6028 22.8003 26.7166 22.9703 26.8342L24.2388 27.699L27.9498 30.217L33.6911 34.1456L34.7433 34.8634C34.8247 34.9181 34.9598 35.0357 35.0459 35.065C35.0891 35.0797 35.2012 35.066 35.25 35.0663L35.7594 35.0697C35.9237 35.0729 36.2 35.1164 36.352 35.0811C36.4644 35.055 36.6567 34.8821 36.7592 34.8103L37.9122 34.0102L45.1048 29.0904L49.0812 26.3651L49.0884 24.978L17.4586 3.4449Z" fill="white"/>
<path d="M36.4561 19.9663C34.3102 19.8044 31.9733 20.4331 30.3276 21.8097C29.2252 22.7319 28.4324 24.008 28.3291 25.4455C28.2329 26.785 28.7164 28.0018 29.6 29.0107C31.0226 30.635 33.2264 31.4653 35.3645 31.6204L35.4005 31.6238C35.9225 31.6703 36.4609 31.6432 36.9809 31.5881C38.6001 31.4163 40.2747 30.8391 41.5372 29.8066C42.6062 28.9323 43.4387 27.7399 43.5532 26.3452C43.6676 24.9522 43.1466 23.6155 42.223 22.5672C40.7745 20.9229 38.6258 20.1173 36.4561 19.9663Z" fill="#17161E"/>
<path d="M36.454 21.705C35.6994 21.6607 35.0147 21.7369 34.2727 21.8711C34.5548 22.3845 34.7838 22.9282 35.0396 23.4551C35.1043 23.5883 35.1828 23.8373 35.2889 23.9285L35.3923 23.9104C35.7827 23.8403 36.1194 23.8959 36.5053 23.9025L37.6597 21.9067L36.454 21.705Z" fill="white"/>
<path d="M36.5521 27.8853C36.1647 27.9509 35.8038 27.9516 35.4167 27.8914L34.2389 30.0821L35.2132 30.2235C36.0068 30.3403 36.8132 30.2384 37.5908 30.0742L36.5521 27.8853Z" fill="white"/>
<path d="M38.547 22.1971L38.4466 22.1826C38.2733 22.3957 38.136 22.6545 37.9946 22.8894L37.2433 24.156C37.6252 24.3544 37.8792 24.5653 38.1706 24.8753L39.2271 24.4952L40.9062 23.8738C40.7653 23.7154 40.6331 23.547 40.4797 23.3998C39.9304 22.8722 39.2662 22.4599 38.547 22.1971Z" fill="white"/>
<path d="M30.5727 24.6431L30.503 24.6514C30.1893 25.5293 30.2041 26.473 30.6162 27.3167L32.3662 26.6671L33.3477 26.3307C33.2838 26.0748 33.2938 25.784 33.3366 25.5253L33.3448 25.4775L30.5727 24.6431Z" fill="white"/>
<path d="M33.4997 22.0908C32.4376 22.4774 31.5199 23.0056 30.8641 23.9397L32.379 24.383C32.5402 24.4332 33.6379 24.813 33.6895 24.7966C33.7608 24.7739 33.9628 24.5484 34.0322 24.4904C34.1898 24.3587 34.3544 24.2746 34.5425 24.1929L33.4997 22.0908Z" fill="white"/>
<path d="M38.0796 27.0215C37.8595 27.2665 37.5943 27.4438 37.309 27.6076C37.3047 27.7141 37.448 27.9536 37.4951 28.0578L38.3253 29.8298L38.8667 29.6068C39.1078 29.4944 39.3349 29.3578 39.5609 29.2188C40.1274 28.8579 40.5887 28.426 40.998 27.8983L38.0796 27.0215Z" fill="white"/>
<path d="M41.3579 24.4761L38.5517 25.5439C38.5768 25.8401 38.554 26.1037 38.5025 26.3962L39.4378 26.6659L41.3909 27.2706L41.4143 27.2363C41.48 27.1209 41.5206 26.9496 41.5587 26.822C41.8037 26.001 41.642 25.258 41.3579 24.4761Z" fill="white"/>
<path d="M33.7092 26.9863L30.9465 27.9578C31.373 28.5453 31.8501 28.9755 32.4653 29.3685L33.49 29.8733L34.7061 27.6698C34.3108 27.5005 34.0026 27.297 33.7092 26.9863Z" fill="white"/>
<path d="M36.1954 24.5851C35.6646 24.5657 35.2321 24.6212 34.7626 24.8803C34.4478 25.054 34.1596 25.309 34.073 25.6692C34.0166 25.9036 34.0688 26.1913 34.1995 26.3926C34.5105 26.8721 35.0614 27.1024 35.6081 27.2097C36.1608 27.2943 36.7721 27.1422 37.2247 26.8208C37.4993 26.6257 37.7436 26.324 37.793 25.9883C37.8314 25.727 37.7234 25.474 37.5601 25.272C37.2244 24.8567 36.7194 24.6484 36.1954 24.5851Z" fill="white"/>
<path d="M36.6043 20.7049C35.7188 20.6292 34.7725 20.7035 33.9025 20.8725C32.2867 21.1866 30.6827 22.1112 29.7639 23.4747C29.1396 24.4011 28.9409 25.5641 29.1711 26.644C29.4553 27.9778 30.3876 28.9032 31.5078 29.6259L31.5342 29.6084C31.1956 29.3328 30.8763 29.054 30.6058 28.7102C29.8586 27.7609 29.3857 26.5685 29.5595 25.3544C29.7482 24.0356 30.5241 23.0283 31.5876 22.2388C32.0106 21.9247 32.5052 21.7046 32.9999 21.5241C34.2776 21.0582 35.6748 20.8847 37.0265 21.0735L38.067 21.2851C39.5928 21.7041 41.1274 22.6478 41.9131 24.03C42.4222 24.9257 42.593 25.9516 42.301 26.9461C41.8553 28.4642 40.6112 29.5032 39.25 30.2376V30.268C39.9522 29.9679 40.6078 29.591 41.1984 29.1096C42.0934 28.3798 42.69 27.4183 42.7956 26.2713C42.9007 25.128 42.479 24.0095 41.7271 23.1409C40.4405 21.6545 38.5603 20.8637 36.6043 20.7049Z" fill="white"/>
</svg>
