<svg width="50" height="50" viewBox="0 0 50 50" fill="none" xmlns="http://www.w3.org/2000/svg">
<path d="M27.7885 0C28.1217 0.232258 28.5253 0.406516 28.8832 0.604998L31.6265 2.10868L43.3428 8.55635L47.5557 10.9044L48.9844 11.7084C49.2551 11.8598 49.5491 12.0008 49.8062 12.1712C49.8624 12.2084 49.9101 12.2537 49.9396 12.3132C49.9702 12.3747 49.9784 12.4351 49.9801 12.5027L49.9907 15.3994L49.9847 22.8735L49.9975 34.1318L49.9973 36.4267L49.9974 36.9965C49.9978 37.1003 50.0116 37.2343 49.9712 37.3325C49.9144 37.4705 49.8052 37.5622 49.6735 37.634L44.2321 40.4263L33.1079 46.0918L27.245 49.0674L26.0865 49.6556C25.864 49.7711 25.635 49.9081 25.4014 50L23.4158 48.8962L16.6466 45.1346L7.43655 40.0729L2.35226 37.2701L0.893037 36.4741C0.697537 36.3684 0.4905 36.2764 0.30061 36.1621C0.212324 36.1089 0.129109 36.0371 0.0783517 35.9491C-0.0491434 35.728 0.0172417 34.9653 0.0175327 34.6903L0.017785 34.4766L0.0168794 30.9455L0.0152053 30.2216C0.0150241 30.1556 -0.00408356 30.0369 0.014508 29.9796C0.0534256 29.8596 0.187563 29.7245 0.271798 29.6276L0.752813 29.0791L2.23853 27.3821L4.38802 24.9134L5.01515 24.2073C5.08563 24.1317 5.27835 23.9734 5.31518 23.8881C5.34323 23.823 5.31513 23.5939 5.31507 23.5154L5.3148 22.076L5.31573 13.7308L5.32023 12.2906C5.32149 12.081 5.28823 11.7851 5.35327 11.5853C5.38264 11.4951 5.46673 11.4273 5.54847 11.3806L8.0342 10.0935L13.5876 7.25925L21.4448 3.24579L27.7885 0Z" fill="#17161E"/>
<path d="M27.7438 0.876465L48.8361 12.5054L47.4098 13.2265C47.1445 13.1265 46.8969 12.9606 46.6531 12.8204L45.4414 12.1358L39.7599 8.98338L31.0942 4.20744L27.9712 2.50576L26.332 1.59292L27.7438 0.876465Z" fill="white"/>
<path d="M0.833984 30.7773L25.0786 44.1991L25.0803 48.9436L0.836959 35.5333L0.833984 30.7773Z" fill="white"/>
<path d="M9.62267 10.1436C9.65044 10.139 9.67822 10.1253 9.70599 10.1298C9.73272 10.1341 9.80469 10.1824 9.8312 10.1967L10.2522 10.4287L12.6973 11.8047L24.4719 18.2982L29.7497 21.2176L29.7446 37.1187L6.89168 24.4179L6.10938 23.9826L6.1186 22.4504C6.20823 22.4698 6.29414 22.5297 6.37346 22.573L6.87532 22.8478L9.83076 24.4985L16.0225 27.9444L23.964 32.3045L26.6466 33.833C26.6956 33.8601 26.743 33.877 26.8003 33.8707C26.9181 33.858 27.0432 33.7874 27.1123 33.6954C27.1423 33.6553 27.1595 33.6118 27.1686 33.5636C27.2253 33.2647 27.1771 32.8837 27.1746 32.5753L27.1662 30.4494L27.1768 25.3787L27.1847 23.9626C27.1857 23.7557 27.2168 23.4941 27.1721 23.2927C27.1487 23.1874 27.0792 23.0992 26.9867 23.0397C26.7839 22.9091 26.5476 22.8075 26.3327 22.6949L25.2083 22.0929L22.4194 20.554L11.9909 14.7521L8.62283 12.866L6.56398 11.6971L9.62267 10.1436Z" fill="white"/>
<path d="M6.12614 12.3589L26.3684 23.6078L26.3605 32.7653L6.11182 21.5152L6.12614 12.3589Z" fill="white"/>
<path d="M5.67088 24.6543L29.8422 38.075L25.3148 43.3975L25.2348 43.3913L1.00879 29.9955L5.67088 24.6543Z" fill="white"/>
<path d="M6.82327 27.6172C6.87849 27.6047 6.93245 27.6027 6.98855 27.6108C7.20768 27.642 7.50985 27.8661 7.70191 27.9745L9.16064 28.7975L15.5059 32.3159L23.2548 36.5566L25.953 38.0301C26.0151 38.0659 26.0746 38.1063 26.1131 38.1664C26.1616 38.2418 26.166 38.4198 26.1337 38.5009C26.058 38.6909 25.071 39.7845 24.869 39.8885C24.8016 39.8991 24.7314 39.9034 24.6632 39.8956C24.5816 39.8862 24.504 39.8417 24.4338 39.8032L19.5096 37.0427L12.45 33.1511L7.84293 30.6011L5.79445 29.4824C5.72381 29.4418 5.65728 29.3901 5.60931 29.3254C5.52011 29.205 5.54662 29.0729 5.56721 28.9366C5.76904 28.6587 6.03153 28.404 6.26207 28.1469C6.40479 27.9878 6.61211 27.6842 6.82327 27.6172Z" fill="#17161E"/>
<path d="M13.3474 32.0303L18.1794 34.68L17.7402 35.1583L12.9121 32.4969L13.3474 32.0303Z" fill="white"/>
<path d="M7.04449 28.5479L12.652 31.6342C12.523 31.8084 12.3514 31.9655 12.2009 32.1236L6.58154 28.9958L7.04449 28.5479Z" fill="white"/>
<path d="M18.8964 35.0483L25.1378 38.4876L24.6861 38.944L24.6354 38.9748C24.4928 38.9531 24.2772 38.795 24.1486 38.7235L22.778 37.9541L20.5205 36.6951L18.4707 35.5439C18.5847 35.365 18.7522 35.2063 18.8964 35.0483Z" fill="white"/>
<path d="M49.1441 13.2041L49.1789 13.2079C49.2344 13.3025 49.2075 34.5309 49.2007 36.9967L25.9395 48.8621L25.9231 48.8519C25.9221 48.851 25.8891 48.8087 25.8883 48.806C25.8685 48.7435 25.8834 48.6105 25.882 48.5405L25.8765 47.7367L25.8911 43.9078L29.7588 39.376L30.4903 38.5199C30.5802 38.4117 30.6636 38.2442 30.7748 38.1636C30.9086 38.0666 31.0905 37.9932 31.2403 37.9181L32.1176 37.4775L34.6873 36.163L44.3011 31.2823L46.5634 30.1319L47.2418 29.7841C47.3804 29.7128 47.5361 29.6516 47.6509 29.5464C47.731 29.4729 47.795 29.3736 47.801 29.2655C47.83 28.7494 47.7961 28.2148 47.7961 27.6968L47.7965 24.336L47.8 13.8711L49.1441 13.2041Z" fill="white"/>
<path d="M46.0357 13.4134L46.0994 13.3979C46.2156 13.4274 46.3246 13.501 46.4282 13.5581L47 13.886L46.9851 29.0187L31.1804 37.0808L30.5388 37.3818L30.5361 21.1762L46.0357 13.4134Z" fill="white"/>
<path d="M45.4841 15.2705C45.5201 15.2736 45.4971 15.2706 45.5521 15.2848L45.5737 28.1324L32.0872 34.9831L32.0477 34.9964L32.0188 34.968L32.0271 25.9924L32.0242 23.2571C32.0231 22.8521 31.976 22.3997 32.0273 21.9999L45.4841 15.2705Z" fill="#17161E"/>
<path d="M25.4893 2.04199C25.684 2.12331 25.8751 2.24572 26.0613 2.34594L27.2985 3.01642L32.3394 5.77161L41.0651 10.593L43.3459 11.855L45.2837 12.9164L30.2684 20.4534L30.0842 20.5369L10.5063 9.67573L25.4893 2.04199Z" fill="white"/>
</svg>
