<svg width="60" height="50" viewBox="0 0 60 50" fill="none" xmlns="http://www.w3.org/2000/svg">
<path d="M20.1189 31.7132C20.1189 37.2772 15.6151 41.7878 10.0594 41.7878C4.50377 41.7878 0 37.2772 0 31.7132C0 26.1491 4.50377 21.6385 10.0594 21.6385C15.6151 21.6385 20.1189 26.1491 20.1189 31.7132Z" fill="#E3FE0F" fill-opacity="0.3"/>
<path d="M18.3439 31.7131C18.3439 36.2953 14.6349 40.0099 10.0596 40.0099C5.48437 40.0099 1.77539 36.2953 1.77539 31.7131C1.77539 27.131 5.48437 23.4164 10.0596 23.4164C14.6349 23.4164 18.3439 27.131 18.3439 31.7131Z" fill="#E3FE0F" fill-opacity="0.5"/>
<path d="M16.5684 31.7132C16.5684 35.3135 13.6542 38.2321 10.0593 38.2321C6.46449 38.2321 3.55029 35.3135 3.55029 31.7132C3.55029 28.1129 6.46449 25.1943 10.0593 25.1943C13.6542 25.1943 16.5684 28.1129 16.5684 31.7132Z" fill="#17161E"/>
<path d="M47.3328 45.8956C47.3328 48.1625 45.4979 50.0001 43.2345 50.0001C40.9711 50.0001 39.1362 48.1625 39.1362 45.8956C39.1362 43.6288 40.9711 41.7911 43.2345 41.7911C45.4979 41.7911 47.3328 43.6288 47.3328 45.8956Z" fill="#E3FE0F" fill-opacity="0.3"/>
<path d="M46.6095 45.8957C46.6095 47.7625 45.0984 49.2758 43.2344 49.2758C41.3704 49.2758 39.8594 47.7625 39.8594 45.8957C39.8594 44.0289 41.3704 42.5155 43.2344 42.5155C45.0984 42.5155 46.6095 44.0289 46.6095 45.8957Z" fill="#E3FE0F" fill-opacity="0.5"/>
<path d="M45.8862 45.8956C45.8862 47.3624 44.6989 48.5514 43.2344 48.5514C41.7698 48.5514 40.5825 47.3624 40.5825 45.8956C40.5825 44.4288 41.7698 43.2397 43.2344 43.2397C44.6989 43.2397 45.8862 44.4288 45.8862 45.8956Z" fill="#17161E"/>
<path d="M59.9999 13.0597C59.9999 16.1508 57.4978 18.6567 54.4113 18.6567C51.3248 18.6567 48.8228 16.1508 48.8228 13.0597C48.8228 9.96852 51.3248 7.46265 54.4113 7.46265C57.4978 7.46265 59.9999 9.96852 59.9999 13.0597Z" fill="#E3FE0F" fill-opacity="0.3"/>
<path d="M59.0133 13.0596C59.0133 15.6053 56.9528 17.6689 54.411 17.6689C51.8691 17.6689 49.8086 15.6053 49.8086 13.0596C49.8086 10.514 51.8691 8.45032 54.411 8.45032C56.9528 8.45032 59.0133 10.514 59.0133 13.0596Z" fill="#E3FE0F" fill-opacity="0.5"/>
<path d="M58.0277 13.0596C58.0277 15.0597 56.4087 16.6812 54.4115 16.6812C52.4144 16.6812 50.7954 15.0597 50.7954 13.0596C50.7954 11.0594 52.4144 9.43799 54.4115 9.43799C56.4087 9.43799 58.0277 11.0594 58.0277 13.0596Z" fill="#17161E"/>
<path d="M39.7474 19.9037C39.7474 22.5827 37.5789 24.7545 34.904 24.7545C32.229 24.7545 30.0605 22.5827 30.0605 19.9037C30.0605 17.2247 32.229 15.053 34.904 15.053C37.5789 15.053 39.7474 17.2247 39.7474 19.9037Z" fill="#E3FE0F" fill-opacity="0.3"/>
<path d="M38.8925 19.9037C38.8925 22.1099 37.1067 23.8984 34.9038 23.8984C32.7008 23.8984 30.915 22.1099 30.915 19.9037C30.915 17.6974 32.7008 15.9089 34.9038 15.9089C37.1067 15.9089 38.8925 17.6974 38.8925 19.9037Z" fill="#E3FE0F" fill-opacity="0.5"/>
<path d="M38.0375 19.9037C38.0375 21.6372 36.6344 23.0425 34.9035 23.0425C33.1727 23.0425 31.7695 21.6372 31.7695 19.9037C31.7695 18.1703 33.1727 16.765 34.9035 16.765C36.6344 16.765 38.0375 18.1703 38.0375 19.9037Z" fill="#17161E"/>
<path d="M25.7222 3.73075C25.7222 5.79119 24.0544 7.4615 21.9971 7.4615C19.9398 7.4615 18.272 5.79119 18.272 3.73075C18.272 1.67031 19.9398 0 21.9971 0C24.0544 0 25.7222 1.67031 25.7222 3.73075Z" fill="#E3FE0F" fill-opacity="0.3"/>
<path d="M25.0652 3.73059C25.0652 5.42742 23.6917 6.80297 21.9974 6.80297C20.3032 6.80297 18.9297 5.42742 18.9297 3.73059C18.9297 2.03376 20.3032 0.658203 21.9974 0.658203C23.6917 0.658203 25.0652 2.03376 25.0652 3.73059Z" fill="#E3FE0F" fill-opacity="0.5"/>
<path d="M24.4077 3.73079C24.4077 5.06401 23.3285 6.1448 21.9973 6.1448C20.6661 6.1448 19.5869 5.06401 19.5869 3.73079C19.5869 2.39756 20.6661 1.31677 21.9973 1.31677C23.3285 1.31677 24.4077 2.39756 24.4077 3.73079Z" fill="#17161E"/>
</svg>
