<svg width="60" height="51" viewBox="0 0 60 51" fill="none" xmlns="http://www.w3.org/2000/svg">
<path d="M20.1189 32.2133C20.1189 37.7774 15.6151 42.2879 10.0594 42.2879C4.50377 42.2879 0 37.7774 0 32.2133C0 26.6492 4.50377 22.1387 10.0594 22.1387C15.6151 22.1387 20.1189 26.6492 20.1189 32.2133Z" fill="#E3FE0F" fill-opacity="0.3"/>
<path d="M18.3434 32.2133C18.3434 36.7954 14.6344 40.51 10.0591 40.51C5.48389 40.51 1.7749 36.7954 1.7749 32.2133C1.7749 27.6311 5.48389 23.9165 10.0591 23.9165C14.6344 23.9165 18.3434 27.6311 18.3434 32.2133Z" fill="#E3FE0F" fill-opacity="0.5"/>
<path d="M16.5684 32.2132C16.5684 35.8135 13.6542 38.7321 10.0593 38.7321C6.46449 38.7321 3.55029 35.8135 3.55029 32.2132C3.55029 28.6129 6.46449 25.6943 10.0593 25.6943C13.6542 25.6943 16.5684 28.6129 16.5684 32.2132Z" fill="#E3FE0F"/>
<path d="M47.3323 46.3955C47.3323 48.6623 45.4975 50.5 43.234 50.5C40.9706 50.5 39.1357 48.6623 39.1357 46.3955C39.1357 44.1287 40.9706 42.291 43.234 42.291C45.4975 42.291 47.3323 44.1287 47.3323 46.3955Z" fill="#E3FE0F" fill-opacity="0.3"/>
<path d="M46.609 46.3953C46.609 48.2621 45.0979 49.7755 43.2339 49.7755C41.37 49.7755 39.8589 48.2621 39.8589 46.3953C39.8589 44.5285 41.37 43.0151 43.2339 43.0151C45.0979 43.0151 46.609 44.5285 46.609 46.3953Z" fill="#E3FE0F" fill-opacity="0.5"/>
<path d="M45.8857 46.3956C45.8857 47.8624 44.6984 49.0514 43.2339 49.0514C41.7693 49.0514 40.582 47.8624 40.582 46.3956C40.582 44.9288 41.7693 43.7397 43.2339 43.7397C44.6984 43.7397 45.8857 44.9288 45.8857 46.3956Z" fill="#E3FE0F"/>
<path d="M59.9999 13.5599C59.9999 16.6511 57.4978 19.1569 54.4113 19.1569C51.3248 19.1569 48.8228 16.6511 48.8228 13.5599C48.8228 10.4688 51.3248 7.96289 54.4113 7.96289C57.4978 7.96289 59.9999 10.4688 59.9999 13.5599Z" fill="#E3FE0F" fill-opacity="0.3"/>
<path d="M59.0133 13.56C59.0133 16.1056 56.9528 18.1693 54.411 18.1693C51.8691 18.1693 49.8086 16.1056 49.8086 13.56C49.8086 11.0143 51.8691 8.95068 54.411 8.95068C56.9528 8.95068 59.0133 11.0143 59.0133 13.56Z" fill="#E3FE0F" fill-opacity="0.5"/>
<path d="M58.0272 13.5601C58.0272 15.5602 56.4082 17.1817 54.4111 17.1817C52.4139 17.1817 50.7949 15.5602 50.7949 13.5601C50.7949 11.5599 52.4139 9.93848 54.4111 9.93848C56.4082 9.93848 58.0272 11.5599 58.0272 13.5601Z" fill="#E3FE0F"/>
<path d="M39.7474 20.4035C39.7474 23.0825 37.5789 25.2542 34.904 25.2542C32.229 25.2542 30.0605 23.0825 30.0605 20.4035C30.0605 17.7245 32.229 15.5527 34.904 15.5527C37.5789 15.5527 39.7474 17.7245 39.7474 20.4035Z" fill="#E3FE0F" fill-opacity="0.3"/>
<path d="M38.8925 20.4034C38.8925 22.6097 37.1067 24.3982 34.9038 24.3982C32.7008 24.3982 30.915 22.6097 30.915 20.4034C30.915 18.1972 32.7008 16.4087 34.9038 16.4087C37.1067 16.4087 38.8925 18.1972 38.8925 20.4034Z" fill="#E3FE0F" fill-opacity="0.5"/>
<path d="M38.038 20.4034C38.038 22.1368 36.6349 23.5421 34.904 23.5421C33.1732 23.5421 31.77 22.1368 31.77 20.4034C31.77 18.6699 33.1732 17.2646 34.904 17.2646C36.6349 17.2646 38.038 18.6699 38.038 20.4034Z" fill="#E3FE0F"/>
<path d="M25.7222 4.23075C25.7222 6.29119 24.0544 7.9615 21.9971 7.9615C19.9398 7.9615 18.272 6.29119 18.272 4.23075C18.272 2.17031 19.9398 0.5 21.9971 0.5C24.0544 0.5 25.7222 2.17031 25.7222 4.23075Z" fill="#E3FE0F" fill-opacity="0.3"/>
<path d="M25.0647 4.23059C25.0647 5.92742 23.6912 7.30297 21.997 7.30297C20.3027 7.30297 18.9292 5.92742 18.9292 4.23059C18.9292 2.53376 20.3027 1.1582 21.997 1.1582C23.6912 1.1582 25.0647 2.53376 25.0647 4.23059Z" fill="#E3FE0F" fill-opacity="0.5"/>
<path d="M24.4072 4.23091C24.4072 5.56413 23.328 6.64493 21.9968 6.64493C20.6656 6.64493 19.5864 5.56413 19.5864 4.23091C19.5864 2.89769 20.6656 1.81689 21.9968 1.81689C23.328 1.81689 24.4072 2.89769 24.4072 4.23091Z" fill="#E3FE0F"/>
</svg>
