<svg width="160" height="160" viewBox="0 0 160 160" fill="none" xmlns="http://www.w3.org/2000/svg">
<path d="M145.01 65.0103C153.289 100.915 130.894 136.732 94.9896 145.01C59.0853 153.289 23.2681 130.894 14.9896 94.9894C6.71106 59.0852 29.1062 23.2679 65.0104 14.9894C100.915 6.71093 136.732 29.106 145.01 65.0103Z" fill="#E3FE0F"/>
<path d="M130.718 81.467L139.895 83.1464L139.502 85.2942L129.786 88.2515L129.731 88.5509L130.53 88.5222L138.639 90.0063L138.447 91.0606L129.27 89.3812L129.663 87.2335L139.376 84.2892L139.431 83.9898L138.632 84.0185L130.523 82.5344L130.718 81.467Z" fill="#17161E"/>
<path d="M132.469 92.015C133.45 92.3622 134.122 92.9088 134.485 93.6549C134.845 94.4092 134.867 95.2355 134.549 96.1337C134.237 97.0153 133.722 97.6239 133.004 97.9596C132.287 98.2952 131.454 98.2953 130.506 97.9599L130.107 97.8187L131.841 92.9159C131.181 92.7197 130.586 92.7199 130.058 92.9168C129.535 93.1248 129.147 93.5865 128.894 94.3017C128.712 94.8174 128.683 95.2842 128.806 95.7022C128.938 96.1231 129.222 96.4715 129.657 96.7474L129.296 97.7703C129.045 97.6067 128.822 97.4157 128.628 97.1973C128.431 96.9872 128.252 96.7272 128.09 96.4173C127.925 96.1158 127.834 95.7514 127.817 95.3241C127.805 94.9082 127.881 94.4673 128.046 94.0016C128.417 92.9537 129.004 92.2725 129.808 91.9579C130.617 91.6546 131.504 91.6737 132.469 92.015ZM132.615 93.1895L131.233 97.0943C131.749 97.2767 132.232 97.2604 132.682 97.0455C133.141 96.8334 133.476 96.428 133.688 95.8292C133.9 95.2304 133.901 94.6835 133.693 94.1886C133.481 93.7021 133.122 93.369 132.615 93.1895Z" fill="#17161E"/>
<path d="M133.276 101.237L132.745 102.122L126.55 100.255L126.386 100.527L131.083 104.89L129.932 106.808L123.866 104.725L123.709 104.986L128.263 109.587L127.739 110.461L122.958 105.646L124.096 103.752L130.15 105.827L130.313 105.555L125.635 101.188L126.779 99.2815L133.276 101.237Z" fill="#17161E"/>
<path d="M119.266 112.249L117.831 114.071L117.14 113.454L118.701 111.512C118.893 111.27 119.096 111.143 119.307 111.131C119.52 111.132 119.741 111.235 119.971 111.441L123.61 114.697L124.581 113.612L125.271 114.23L124.3 115.315L125.563 116.444L125.095 117.463L123.586 116.113L122.218 117.642L121.528 117.024L122.895 115.496L119.266 112.249Z" fill="#17161E"/>
<path d="M118.887 116.997C119.556 117.795 119.857 118.607 119.79 119.434C119.717 120.267 119.315 120.989 118.585 121.601C117.868 122.202 117.115 122.464 116.326 122.388C115.538 122.312 114.821 121.889 114.175 121.118L113.903 120.794L117.889 117.453C117.42 116.949 116.908 116.647 116.353 116.548C115.797 116.461 115.228 116.661 114.647 117.149C114.228 117.5 113.965 117.887 113.859 118.31C113.758 118.739 113.826 119.184 114.061 119.643L113.229 120.34C113.096 120.071 113.001 119.793 112.945 119.507C112.883 119.226 112.86 118.911 112.878 118.561C112.89 118.218 112.997 117.858 113.199 117.481C113.4 117.117 113.69 116.776 114.069 116.459C114.921 115.745 115.773 115.457 116.625 115.595C117.476 115.745 118.23 116.212 118.887 116.997ZM118.416 118.082L115.241 120.742C115.592 121.162 116.017 121.393 116.514 121.437C117.016 121.488 117.511 121.309 117.998 120.901C118.485 120.493 118.764 120.023 118.836 119.491C118.902 118.964 118.761 118.495 118.416 118.082Z" fill="#17161E"/>
<path d="M112.802 122.337C113.312 123.173 113.479 124.022 113.303 124.884C113.123 125.758 112.593 126.464 111.712 127.002C111.32 127.241 110.9 127.399 110.451 127.477C110.007 127.562 109.53 127.517 109.02 127.342C108.515 127.175 108.084 126.849 107.726 126.365L108.664 125.793C109.395 126.669 110.25 126.809 111.229 126.211C111.862 125.825 112.222 125.332 112.31 124.73C112.397 124.129 112.253 123.52 111.876 122.902C111.499 122.285 111.021 121.874 110.441 121.669C109.866 121.472 109.263 121.567 108.63 121.953C107.651 122.55 107.384 123.375 107.83 124.426L106.892 124.998C106.625 124.459 106.53 123.922 106.608 123.389C106.69 122.863 106.868 122.419 107.142 122.055C107.421 121.699 107.756 121.401 108.148 121.162C109.029 120.625 109.897 120.472 110.752 120.705C111.604 120.949 112.287 121.493 112.802 122.337Z" fill="#17161E"/>
<path d="M103.64 131.475C102.932 131.771 102.292 131.795 101.719 131.546C101.147 131.298 100.689 130.763 100.345 129.941L98.7937 126.229L99.7826 125.816L101.278 129.393C101.54 130.02 101.853 130.415 102.218 130.578C102.578 130.752 103.022 130.729 103.551 130.508C104.203 130.236 104.631 129.774 104.837 129.124C105.035 128.477 104.966 127.751 104.629 126.945L103.506 124.259L104.508 123.84L108.259 132.814L107.258 133.233L105.604 129.277L105.472 128.515L105.191 128.632C105.299 129.256 105.227 129.817 104.976 130.314C104.72 130.822 104.275 131.209 103.64 131.475Z" fill="#17161E"/>
<path d="M95.6484 133.456C96.3329 133.284 96.8257 132.892 97.1268 132.28C97.4194 131.669 97.4594 130.941 97.2468 130.094L96.5381 127.27L97.5905 127.006L99.1916 133.385L98.1391 133.649L97.8621 132.545L97.8453 131.772L97.5501 131.846C97.5635 132.479 97.4089 133.023 97.0862 133.477C96.7572 133.941 96.2589 134.257 95.5915 134.425C94.8471 134.612 94.2105 134.54 93.6817 134.208C93.1529 133.877 92.78 133.28 92.5631 132.415L91.5838 128.514L92.6234 128.253L93.5673 132.013C93.7327 132.672 93.9834 133.109 94.3195 133.325C94.6493 133.552 95.0922 133.595 95.6484 133.456Z" fill="#17161E"/>
<path d="M90.6687 132.453C90.7502 133.42 90.4975 134.256 89.9106 134.961C89.3237 135.665 88.516 136.061 87.4875 136.148C86.4677 136.234 85.614 135.978 84.9262 135.381C84.2297 134.784 83.8406 134.003 83.7591 133.036C83.6769 132.06 83.9292 131.22 84.5161 130.515C85.0942 129.811 85.8931 129.416 86.9128 129.33C87.9413 129.244 88.8039 129.499 89.5004 130.095C90.197 130.691 90.5864 131.478 90.6687 132.453ZM89.5874 132.544C89.5266 131.824 89.2653 131.244 88.8033 130.805C88.3421 130.374 87.7378 130.19 86.9906 130.253C86.2434 130.316 85.6832 130.603 85.3101 131.112C84.9281 131.623 84.7672 132.234 84.8272 132.946C84.8872 133.658 85.1478 134.229 85.6091 134.659C86.0623 135.099 86.6625 135.288 87.4097 135.225C88.1569 135.162 88.7215 134.875 89.1034 134.365C89.4861 133.863 89.6474 133.257 89.5874 132.544Z" fill="#17161E"/>
<path d="M82.3001 129.996L82.2649 130.922L80.4136 130.851L80.1098 138.838L81.4763 138.771L81.4411 139.696L79.9022 139.77C79.6014 139.785 79.3791 139.711 79.2353 139.546C79.0915 139.382 79.0256 139.141 79.0377 138.824L79.3425 130.81L77.5045 130.74L77.5397 129.815L82.3001 129.996Z" fill="#17161E"/>
<path d="M76.148 133.393C75.9662 134.346 75.4978 135.083 74.7429 135.604C73.988 136.124 73.1036 136.288 72.0897 136.095C71.0845 135.903 70.3311 135.427 69.8294 134.667C69.3191 133.905 69.1549 133.047 69.3367 132.094C69.5201 131.132 69.9893 130.391 70.7442 129.87C71.4905 129.348 72.3662 129.183 73.3714 129.374C74.3853 129.568 75.1474 130.045 75.6577 130.807C76.168 131.569 76.3314 132.431 76.148 133.393ZM75.0821 133.19C75.2176 132.479 75.122 131.85 74.7953 131.303C74.467 130.764 73.9345 130.425 73.1979 130.284C72.4613 130.144 71.8447 130.269 71.3482 130.659C70.843 131.048 70.5234 131.593 70.3896 132.295C70.2557 132.997 70.3529 133.617 70.6813 134.156C70.9994 134.701 71.5267 135.044 72.2633 135.185C72.9998 135.325 73.6207 135.201 74.126 134.813C74.6295 134.433 74.9482 133.892 75.0821 133.19Z" fill="#17161E"/>
<path d="M59.7609 132.709L59.2142 132.509L59.5327 131.639L60.0546 131.83C60.3694 131.945 60.669 131.961 60.9533 131.877C60.7991 131.426 60.8175 130.94 61.0087 130.418C61.2423 129.78 61.6869 129.323 62.3425 129.046C62.9868 128.775 63.8587 128.638 64.9584 128.637C64.4371 128.521 63.9739 128.375 63.5688 128.199C63.1524 128.027 62.8515 127.771 62.6661 127.431C62.4724 127.088 62.4545 126.701 62.6122 126.27C62.7123 125.997 62.8444 125.777 63.0083 125.612C63.1722 125.446 63.3903 125.338 63.6625 125.288C63.9295 125.226 64.2189 125.205 64.5309 125.225C64.8429 125.245 65.2426 125.321 65.73 125.453C66.2203 125.576 66.7212 125.722 67.2326 125.89C67.744 126.059 68.3725 126.28 69.118 126.553L68.7995 127.422C66.8942 126.725 65.5957 126.32 64.904 126.207C64.2041 126.092 63.7707 126.262 63.6039 126.718C63.2307 127.736 64.6169 128.338 67.7625 128.522L67.7143 129.308C66.584 129.214 65.5018 129.141 64.4678 129.091L64.3632 129.377C65.504 129.494 66.3696 129.863 66.9598 130.483C67.5501 131.103 67.6768 131.873 67.3401 132.793C67.0397 133.613 66.5181 134.126 65.7752 134.334C65.0324 134.541 64.1929 134.473 63.2568 134.13C62.4201 133.824 61.7929 133.368 61.3753 132.764C60.9877 132.848 60.6963 132.887 60.5011 132.881C60.2976 132.872 60.0509 132.815 59.7609 132.709ZM64.7779 129.938C63.3448 129.413 62.425 129.706 62.0185 130.816C61.615 131.917 62.1298 132.731 63.5629 133.256C65.0043 133.783 65.9268 133.497 66.3303 132.395C66.7368 131.285 66.2193 130.466 64.7779 129.938Z" fill="#17161E"/>
<path d="M55.5015 132.06C55.7451 132.184 55.9094 132.367 55.9943 132.608C56.0713 132.845 56.0497 133.082 55.9295 133.318C55.8133 133.546 55.6365 133.698 55.3992 133.775C55.154 133.848 54.9095 133.823 54.6659 133.698C54.4301 133.578 54.2698 133.397 54.1849 133.156C54.1 132.915 54.1157 132.68 54.2319 132.452C54.3521 132.216 54.5348 132.062 54.78 131.989C55.0252 131.916 55.2657 131.939 55.5015 132.06ZM60.9209 126.267L60.5001 127.092L58.8496 126.251L56.6495 130.566L57.9179 131.079L57.4971 131.904L56.0813 131.33C55.5464 131.117 55.4112 130.751 55.6757 130.232L57.9419 125.788L56.2915 124.946L56.7123 124.121L60.9209 126.267Z" fill="#17161E"/>
<path d="M53.9945 126.849C53.3954 127.7 52.6876 128.2 51.8713 128.348C51.0477 128.491 50.2464 128.289 49.4672 127.741C48.7025 127.202 48.2554 126.542 48.1259 125.761C47.9964 124.979 48.221 124.177 48.7999 123.355L49.0436 123.008L53.2964 126.002C53.6636 125.419 53.8237 124.846 53.7767 124.285C53.7174 123.725 53.3776 123.227 52.7572 122.79C52.3099 122.476 51.8683 122.321 51.4325 122.327C50.9916 122.341 50.5796 122.52 50.1963 122.865L49.309 122.241C49.5343 122.043 49.7783 121.88 50.0409 121.752C50.2964 121.619 50.5951 121.517 50.9372 121.445C51.272 121.367 51.6474 121.378 52.0635 121.477C52.4672 121.578 52.8711 121.77 53.2751 122.054C54.1841 122.694 54.6815 123.444 54.7675 124.302C54.8412 125.163 54.5835 126.012 53.9945 126.849ZM52.8242 126.673L49.4371 124.289C49.1223 124.736 49.0076 125.205 49.0931 125.697C49.1734 126.196 49.4733 126.628 49.9928 126.994C50.5122 127.359 51.0383 127.509 51.5711 127.441C52.0967 127.369 52.5144 127.113 52.8242 126.673Z" fill="#17161E"/>
<path d="M44.3878 117.413C44.7555 117.008 45.2052 116.815 45.7369 116.833C46.2627 116.858 46.8652 117.178 47.5445 117.795C49.0271 119.141 49.1961 120.445 48.0515 121.705L47.2482 120.976C47.9954 120.153 47.8922 119.308 46.9387 118.443C46.5533 118.093 46.225 117.89 45.9538 117.834C45.6826 117.779 45.4373 117.872 45.2178 118.113C45.1348 118.205 45.0734 118.292 45.0337 118.375C44.9881 118.465 44.9712 118.569 44.9832 118.687C44.9886 118.799 44.9964 118.895 45.0065 118.976C45.0166 119.057 45.0627 119.17 45.1447 119.316C45.2142 119.463 45.2694 119.572 45.3104 119.645C45.3449 119.712 45.423 119.843 45.5448 120.037C45.66 120.225 45.7348 120.352 45.7693 120.419C45.9671 120.766 46.118 121.046 46.222 121.259C46.3194 121.467 46.4059 121.706 46.4815 121.978C46.551 122.255 46.5539 122.508 46.4899 122.736C46.426 122.964 46.2991 123.182 46.1093 123.391C45.7535 123.783 45.315 123.951 44.794 123.895C44.267 123.846 43.7259 123.569 43.1708 123.065C42.4719 122.43 42.1113 121.817 42.089 121.224C42.0602 120.626 42.2563 120.095 42.6774 119.632L43.4807 120.361C42.8877 121.014 42.983 121.697 43.7668 122.408C44.4134 122.995 44.9175 123.09 45.2793 122.691C45.4809 122.469 45.5538 122.232 45.4978 121.978C45.4419 121.725 45.2607 121.334 44.9542 120.805C44.9132 120.732 44.8413 120.602 44.7385 120.413C44.6233 120.225 44.5449 120.088 44.5033 120.003C44.4558 119.924 44.3904 119.799 44.3072 119.628C44.2181 119.464 44.162 119.335 44.1388 119.243C44.1031 119.151 44.063 119.031 44.0184 118.883C43.9672 118.729 43.9485 118.599 43.9621 118.492C43.9691 118.38 43.9851 118.257 44.0099 118.125C44.0288 117.999 44.073 117.878 44.1423 117.762C44.2052 117.641 44.287 117.524 44.3878 117.413Z" fill="#17161E"/>
<path d="M35.4786 110.715L32.4589 105.172L33.2375 104.747L36.2572 110.29L35.4786 110.715Z" fill="#17161E"/>
<path d="M31.04 103.088L28.9674 97.1262L29.8049 96.8351L31.8774 102.797L31.04 103.088Z" fill="#17161E"/>
<path d="M27.8915 94.7763L26.8074 88.5579L27.6809 88.4057L28.7649 94.624L27.8915 94.7763Z" fill="#17161E"/>
<path d="M29.3197 77.4862L20.1622 75.7043L20.5793 73.561L30.3277 70.7126L30.3858 70.4138L29.5866 70.4335L21.4942 68.8589L21.699 67.8067L30.8565 69.5887L30.4394 71.7319L20.6935 74.5674L20.6354 74.8661L21.4346 74.8464L29.527 76.4211L29.3197 77.4862Z" fill="#17161E"/>
<path d="M27.7258 66.6849C26.7496 66.3233 26.0855 65.7669 25.7335 65.0156C25.3845 64.256 25.3755 63.4295 25.7064 62.536C26.0312 61.6591 26.5548 61.0581 27.2773 60.733C27.9998 60.408 28.8326 60.4201 29.7757 60.7694L30.1728 60.9165L28.3665 65.7932C29.024 65.9992 29.6183 66.0076 30.1493 65.8185C30.6751 65.6182 31.0697 65.1623 31.3332 64.4508C31.5232 63.9379 31.5595 63.4715 31.4422 63.0518C31.3166 62.6289 31.0379 62.2764 30.6062 61.9942L30.9831 60.9767C31.2316 61.144 31.4513 61.3382 31.6421 61.5595C31.8361 61.7724 32.0116 62.035 32.1688 62.3472C32.3291 62.6512 32.4147 63.0169 32.4257 63.4443C32.4315 63.8604 32.3487 64.3001 32.1771 64.7633C31.791 65.8057 31.1938 66.4782 30.3855 66.781C29.572 67.0723 28.6855 67.0403 27.7258 66.6849ZM27.5971 65.5083L29.0357 61.6242C28.5228 61.4343 28.0396 61.4434 27.5862 61.6518C27.1244 61.8571 26.7832 62.2575 26.5626 62.8532C26.342 63.4488 26.3323 63.9956 26.5336 64.4935C26.738 64.9831 27.0925 65.3214 27.5971 65.5083Z" fill="#17161E"/>
<path d="M26.958 57.6308L27.4988 56.7517L33.6733 58.6858L33.8397 58.4153L29.1907 54.0016L30.3625 52.0968L36.4052 54.2451L36.5647 53.9858L32.0613 49.3354L32.5952 48.4676L37.3232 53.3338L36.1652 55.2161L30.1338 53.0747L29.9674 53.3452L34.5982 57.7633L33.4333 59.6568L26.958 57.6308Z" fill="#17161E"/>
<path d="M41.0214 46.817L42.477 45.0101L43.1605 45.6353L41.579 47.5602C41.3837 47.8 41.18 47.9246 40.9681 47.934C40.7557 47.931 40.5356 47.8253 40.3077 47.6169L36.7047 44.3212L35.7223 45.3952L35.0388 44.77L36.0212 43.696L34.7714 42.5528L35.2507 41.5386L36.7447 42.9051L38.129 41.3916L38.8125 42.0168L37.4282 43.5303L41.0214 46.817Z" fill="#17161E"/>
<path d="M41.4834 42.0153C40.8238 41.21 40.5319 40.3942 40.6078 39.568C40.6905 38.7362 41.1003 38.0185 41.8374 37.4147C42.5608 36.8221 43.3164 36.5681 44.1041 36.6527C44.8918 36.7373 45.6043 37.1686 46.2416 37.9466L46.51 38.2742L42.4869 41.5697C42.9502 42.0796 43.4587 42.3872 44.0125 42.4924C44.5675 42.5852 45.1384 42.3912 45.7253 41.9105C46.1484 41.5639 46.4154 41.1798 46.5263 40.7583C46.6316 40.3299 46.5693 39.8849 46.3393 39.4232L47.1788 38.7356C47.3086 39.0056 47.4 39.2842 47.453 39.5716C47.5127 39.8533 47.5315 40.1686 47.5094 40.5175C47.4941 40.8608 47.3832 41.2196 47.1767 41.594C46.9714 41.956 46.6777 42.2935 46.2955 42.6066C45.4356 43.311 44.5804 43.5895 43.73 43.4423C42.8808 43.2826 42.1319 42.807 41.4834 42.0153ZM41.967 40.935L45.1711 38.3103C44.8245 37.8872 44.4029 37.651 43.9063 37.6016C43.4041 37.5454 42.9074 37.7185 42.416 38.1211C41.9246 38.5236 41.64 38.9905 41.5621 39.5219C41.491 40.0476 41.626 40.5187 41.967 40.935Z" fill="#17161E"/>
<path d="M47.4261 36.8417C46.9255 36.0001 46.7683 35.1493 46.9546 34.2891C47.144 33.4168 47.6822 32.7168 48.5693 32.1891C48.9636 31.9546 49.3855 31.8011 49.8351 31.7287C50.2802 31.6486 50.7566 31.6988 51.2643 31.8793C51.7675 32.0521 52.1952 32.3828 52.5474 32.8713L51.6034 33.4329C50.882 32.5481 50.0285 32.3989 49.0429 32.9852C48.406 33.3641 48.0403 33.8537 47.9458 34.454C47.8512 35.0542 47.9889 35.6652 48.3587 36.287C48.7286 36.9087 49.2021 37.325 49.7792 37.536C50.3519 37.7393 50.9566 37.6516 51.5935 37.2727C52.5791 36.6864 52.8553 35.8651 52.422 34.809L53.366 34.2474C53.6272 34.79 53.716 35.3275 53.6322 35.8597C53.544 36.3844 53.3608 36.827 53.0826 37.1876C52.7998 37.5405 52.4613 37.8343 52.0671 38.0688C51.18 38.5965 50.3103 38.7393 49.4579 38.497C48.6086 38.2426 47.9313 37.6909 47.4261 36.8417Z" fill="#17161E"/>
<path d="M56.7045 27.7459C57.4159 27.458 58.0564 27.4416 58.6259 27.6965C59.1954 27.9515 59.6472 28.4919 59.9814 29.3179L61.4902 33.047L60.4966 33.4491L59.0424 29.8549C58.7876 29.2251 58.4788 28.8266 58.1161 28.6593C57.7583 28.4806 57.3136 28.4987 56.782 28.7138C56.1278 28.9785 55.6938 29.4348 55.4801 30.0827C55.2746 30.7274 55.3357 31.4545 55.6632 32.2641L56.7552 34.9628L55.7493 35.3698L52.1013 26.3536L53.1072 25.9466L54.7153 29.9211L54.8387 30.6849L55.1208 30.5707C55.0201 29.9453 55.0981 29.3856 55.355 28.8914C55.6168 28.3858 56.0666 28.004 56.7045 27.7459Z" fill="#17161E"/>
<path d="M64.7479 25.8002C64.0614 25.9641 63.5641 26.3504 63.2559 26.9591C62.9563 27.5657 62.9079 28.2938 63.1107 29.1433L63.7867 31.975L62.7312 32.2269L61.2041 25.8299L62.2596 25.5779L62.5238 26.6849L62.5316 27.4585L62.8277 27.3878C62.8216 26.7544 62.9825 26.2126 63.3104 25.7624C63.6448 25.3017 64.1467 24.9914 64.816 24.8316C65.5625 24.6534 66.1982 24.7329 66.7232 25.0702C67.2481 25.4074 67.614 26.0094 67.8209 26.8761L68.755 30.7889L67.7124 31.0378L66.8121 27.2665C66.6544 26.6058 66.4087 26.1656 66.0751 25.9459C65.7481 25.7156 65.3057 25.6671 64.7479 25.8002Z" fill="#17161E"/>
<path d="M69.7559 26.8117C69.6855 25.8439 69.9478 25.011 70.5427 24.3132C71.1377 23.6154 71.9499 23.2291 72.9793 23.1542C74 23.08 74.8507 23.3454 75.5316 23.9504C76.2213 24.5548 76.6013 25.341 76.6717 26.3088C76.7427 27.2855 76.4807 28.1227 75.8858 28.8205C75.2996 29.5177 74.4962 29.9034 73.4755 29.9776C72.4461 30.0525 71.5865 29.7877 70.8969 29.1833C70.2072 28.5789 69.8269 27.7884 69.7559 26.8117ZM70.8381 26.733C70.8906 27.4545 71.1453 28.0375 71.6021 28.4819C72.0584 28.9175 72.6605 29.1081 73.4084 29.0538C74.1562 28.9994 74.7197 28.7196 75.0987 28.2144C75.4865 27.7085 75.6545 27.0993 75.6026 26.3866C75.5508 25.6739 75.2968 25.0997 74.8405 24.6641C74.3924 24.219 73.7944 24.0237 73.0465 24.0781C72.2986 24.1325 71.7308 24.4126 71.343 24.9184C70.9546 25.4155 70.7863 26.0203 70.8381 26.733Z" fill="#17161E"/>
<path d="M78.1746 29.3426L78.2203 28.4174L80.0706 28.5089L80.4653 20.526L79.0981 20.5776L79.1439 19.6524L80.6835 19.5961C80.9844 19.5844 81.2058 19.6616 81.3478 19.8276C81.4897 19.9936 81.5529 20.2352 81.5372 20.5524L81.1412 28.5618L82.9784 28.6527L82.9326 29.5778L78.1746 29.3426Z" fill="#17161E"/>
<path d="M84.2178 25.9658C84.4102 25.0147 84.8868 24.283 85.6474 23.7709C86.4081 23.2587 87.2943 23.105 88.306 23.3097C89.309 23.5126 90.057 23.997 90.5502 24.7628C91.0519 25.5304 91.2065 26.3898 91.0141 27.3409C90.8199 28.3007 90.3425 29.0367 89.5818 29.5488C88.8298 30.0627 87.9522 30.2182 86.9492 30.0153C85.9376 29.8106 85.1808 29.3244 84.6791 28.5569C84.1773 27.7893 84.0236 26.9256 84.2178 25.9658ZM85.2813 26.181C85.1378 26.89 85.2264 27.52 85.547 28.0709C85.8693 28.6132 86.3979 28.9586 87.1329 29.1073C87.8679 29.2561 88.4858 29.1381 88.9867 28.7534C89.4962 28.3704 89.8218 27.8287 89.9635 27.1284C90.1052 26.428 90.0149 25.8067 89.6926 25.2644C89.3807 24.7152 88.8572 24.3663 88.1223 24.2176C87.3873 24.0689 86.765 24.186 86.2555 24.569C85.7478 24.9433 85.423 25.4806 85.2813 26.181Z" fill="#17161E"/>
<path d="M100.743 26.8401L101.288 27.0464L100.959 27.9126L100.44 27.7158C100.126 27.597 99.8268 27.578 99.5416 27.6586C99.6908 28.1114 99.667 28.5976 99.4702 29.1174C99.2296 29.7526 98.78 30.2049 98.1214 30.4743C97.4741 30.7386 96.6007 30.8653 95.5011 30.8545C96.0211 30.976 96.4827 31.1272 96.8858 31.3082C97.3003 31.4841 97.5984 31.7432 97.78 32.0855C97.9699 32.431 97.9836 32.8183 97.8211 33.2473C97.718 33.5195 97.5836 33.7375 97.4178 33.9011C97.2521 34.0647 97.0328 34.1704 96.7601 34.218C96.4925 34.277 96.2028 34.2946 95.891 34.2709C95.5793 34.2472 95.1805 34.1669 94.6946 34.03C94.2056 33.9014 93.7063 33.7501 93.1968 33.576C92.6873 33.4019 92.0613 33.1742 91.3188 32.893L91.6469 32.0267C93.5444 32.7454 94.8384 33.1647 95.5287 33.2847C96.2274 33.4078 96.6626 33.2425 96.8345 32.7887C97.2188 31.7739 95.8393 31.1571 92.6959 30.9382L92.7527 30.1532C93.8819 30.2601 94.9632 30.3442 95.9966 30.4054L96.1044 30.1208C94.9649 29.9911 94.1035 29.6129 93.5201 28.9863C92.9367 28.3598 92.8184 27.5886 93.1652 26.6728C93.4746 25.8561 94.0018 25.3482 94.7469 25.1493C95.492 24.9504 96.3307 25.0275 97.263 25.3806C98.0962 25.6962 98.7184 26.1582 99.1294 26.7667C99.5179 26.6874 99.8097 26.6517 100.005 26.6596C100.208 26.6706 100.454 26.7308 100.743 26.8401ZM95.6958 29.5557C97.1231 30.0963 98.0461 29.8138 98.4648 28.7083C98.8804 27.611 98.3745 26.7921 96.9473 26.2515C95.5118 25.7079 94.5862 25.9846 94.1706 27.0819C93.7519 28.1874 94.2603 29.012 95.6958 29.5557Z" fill="#17161E"/>
<path d="M105.031 27.5371C104.789 27.4102 104.627 27.2256 104.544 26.9834C104.47 26.7452 104.494 26.5089 104.617 26.2745C104.736 26.0478 104.914 25.8973 105.152 25.8229C105.398 25.7525 105.642 25.7808 105.885 25.9077C106.119 26.0305 106.277 26.213 106.36 26.4552C106.442 26.6975 106.424 26.9319 106.305 27.1586C106.182 27.393 105.998 27.5454 105.752 27.6158C105.506 27.6861 105.266 27.6599 105.031 27.5371ZM99.5488 33.2701L99.9786 32.4495L101.62 33.3091L103.867 29.0186L102.604 28.4918L103.034 27.6712L104.443 28.26C104.976 28.4792 105.107 28.8466 104.837 29.3624L102.522 33.7818L104.164 34.6413L103.734 35.4619L99.5488 33.2701Z" fill="#17161E"/>
<path d="M106.492 32.7551C107.1 31.9104 107.814 31.4184 108.631 31.2791C109.456 31.1449 110.256 31.3563 111.029 31.9131C111.787 32.4597 112.227 33.1244 112.348 33.9074C112.469 34.6903 112.236 35.4899 111.648 36.3059L111.401 36.6495L107.181 33.61C106.807 34.189 106.641 34.7596 106.682 35.3217C106.735 35.8819 107.069 36.3837 107.685 36.8271C108.129 37.1468 108.569 37.3059 109.004 37.3046C109.445 37.2961 109.859 37.1213 110.246 36.7803L111.127 37.4145C110.899 37.6095 110.654 37.7695 110.39 37.8946C110.133 38.0249 109.833 38.1242 109.49 38.1926C109.155 38.2661 108.779 38.2513 108.364 38.1481C107.962 38.0429 107.56 37.846 107.159 37.5573C106.257 36.9076 105.768 36.1529 105.691 35.2932C105.627 34.4315 105.894 33.5855 106.492 32.7551ZM107.66 32.9443L111.021 35.3651C111.341 34.9212 111.461 34.453 111.381 33.9605C111.306 33.4607 111.01 33.0252 110.495 32.654C109.98 32.2828 109.455 32.1279 108.922 32.1894C108.395 32.256 107.975 32.5076 107.66 32.9443Z" fill="#17161E"/>
<path d="M116.136 42.4153C115.762 42.8148 115.31 43.0016 114.778 42.9758C114.253 42.9435 113.655 42.614 112.985 41.9873C111.522 40.6196 111.372 39.3139 112.535 38.0702L113.328 38.8114C112.569 39.6233 112.659 40.4691 113.6 41.3488C113.98 41.7043 114.306 41.9118 114.576 41.9714C114.846 42.031 115.093 41.9416 115.316 41.7032C115.4 41.613 115.463 41.5266 115.504 41.4441C115.551 41.3551 115.569 41.2515 115.559 41.1333C115.555 41.0211 115.549 40.9245 115.54 40.8437C115.531 40.7628 115.487 40.6489 115.407 40.5017C115.339 40.3542 115.286 40.2437 115.246 40.1701C115.212 40.1026 115.136 39.9709 115.017 39.7752C114.905 39.5855 114.832 39.4568 114.798 39.3893C114.606 39.04 114.459 38.7578 114.358 38.5427C114.264 38.3337 114.181 38.0931 114.109 37.8208C114.044 37.5422 114.044 37.2893 114.112 37.0624C114.179 36.8354 114.309 36.6189 114.502 36.4127C114.863 36.026 115.304 35.8646 115.824 35.9283C116.351 35.9855 116.888 36.2702 117.435 36.7824C118.125 37.4271 118.476 38.0457 118.49 38.6382C118.51 39.2367 118.306 39.7647 117.878 40.2222L117.086 39.4811C117.688 38.8367 117.603 38.153 116.83 37.43C116.192 36.8334 115.689 36.7317 115.322 37.1248C115.117 37.3439 115.04 37.5805 115.093 37.8346C115.145 38.0888 115.32 38.4824 115.619 39.0154C115.659 39.0889 115.729 39.2208 115.829 39.4109C115.941 39.6006 116.018 39.7385 116.058 39.8245C116.105 39.9041 116.168 40.0299 116.249 40.202C116.335 40.3676 116.39 40.4969 116.412 40.5898C116.446 40.6822 116.484 40.8027 116.527 40.951C116.576 41.1054 116.592 41.2359 116.577 41.3425C116.569 41.4552 116.551 41.5775 116.524 41.7095C116.503 41.835 116.457 41.9551 116.386 42.0699C116.322 42.1906 116.238 42.3058 116.136 42.4153Z" fill="#17161E"/>
<path d="M123.722 49.2706L126.685 54.8439L125.902 55.2602L122.939 49.6868L123.722 49.2706Z" fill="#17161E"/>
<path d="M128.07 56.8869L130.093 62.8661L129.253 63.1503L127.23 57.1711L128.07 56.8869Z" fill="#17161E"/>
<path d="M131.119 65.099L132.156 71.3252L131.281 71.4709L130.244 65.2447L131.119 65.099Z" fill="#17161E"/>
<path d="M67.4537 62.9218C70.1436 61.1584 74.3952 61.5039 75.548 64.8468L81.9447 92.5105C82.0875 93.0872 82.2505 93.6913 82.3269 94.2799C82.822 98.0951 79.6627 101.415 75.8258 100.74C74.4929 100.506 75.1207 100.357 73.8074 100.74C72.9368 100.994 71.9581 101.277 71.0542 101.312C67.291 101.455 63.6215 99.087 62.8619 95.2996C62.289 92.4442 63.5592 93.8809 60.5662 93.0372C55.7356 91.6752 54.3303 85.9675 56.8542 82.092C57.3473 81.3349 57.5312 81.6465 57.2614 80.84C56.7222 79.2279 57.2556 77.2706 58.3224 75.988L58.8306 75.4269C59.0608 75.1774 59.0137 75.0774 58.9694 74.7514L58.9093 74.1156C58.6897 71.0911 60.571 68.1532 63.3446 66.9383C63.9815 66.6593 64.563 66.7537 64.8025 66.1675L65.0453 65.6249C65.5987 64.5243 66.422 63.5972 67.4537 62.9218ZM72.731 72.5291C71.3898 73.4934 71.7541 77.1662 69.3153 78.2555C67.671 78.9899 67.3033 77.9449 66.1543 77.2147C65.5693 76.8428 64.8901 77.4041 64.819 78.0353C64.7015 79.0785 67.1668 80.3132 68.0995 80.3621C71.3676 80.5333 72.4485 77.8432 73.3884 75.2842C73.5454 74.8565 73.7083 74.3602 73.9528 73.9767C73.9172 73.8759 74.2902 73.3473 74.1745 72.9964C73.9567 72.3362 73.2861 72.334 72.731 72.5291ZM66.6668 86.49C66.0939 86.7526 65.8269 87.2303 65.6114 87.7995C64.5545 90.5909 65.2519 93.5494 68.1105 94.8741C68.7501 95.1704 69.4706 95.4391 70.1785 95.4965C71.0226 95.3702 71.107 94.2429 70.444 93.8342C70.1818 93.6727 69.8641 93.6299 69.5742 93.5397C67.5523 92.911 66.4885 90.8516 67.1474 88.8441C67.3163 88.3293 67.7662 87.7461 67.7489 87.2028C67.5228 86.7632 67.1929 86.3925 66.6668 86.49ZM72.2202 85.2103C69.8567 86.2006 74.4104 90.6518 77.2594 89.9851C78.1451 89.6592 78.1401 88.671 77.3078 88.317C76.9593 88.1688 76.5268 88.1601 76.155 88.08C73.6393 87.5375 73.6203 85.004 72.2433 85.2074L72.2202 85.2103Z" fill="#17161E"/>
<path fill-rule="evenodd" clip-rule="evenodd" d="M81.2436 59.3595C83.4873 58.7364 85.824 59.3295 87.4924 60.921C87.8501 61.2623 88.1627 61.1977 88.5853 61.1103C88.7565 61.075 88.9457 61.0359 89.1632 61.0185C92.2573 60.7711 95.6098 62.791 96.5542 65.7941L96.6935 66.2868C96.7557 66.5209 96.87 66.5545 97.0465 66.6064C97.1014 66.6226 97.1623 66.6405 97.2295 66.6668C99.4866 67.549 100.454 69.0658 100.952 71.3107C101.106 71.4315 101.28 71.5289 101.454 71.6266C101.578 71.696 101.702 71.7656 101.819 71.8438C105.973 74.6073 106.867 80.2227 102.856 83.4799C102.576 83.7073 102.278 83.9077 101.979 84.1084C101.86 84.1889 101.74 84.2694 101.621 84.3517C102.658 87.1202 102.608 90.2327 100.744 92.6663C99.0424 94.6181 97.6606 95.2903 95.2467 95.824C95.1835 95.838 95.085 95.8565 94.9669 95.8786C94.5174 95.9629 93.7851 96.1002 93.6472 96.244C90.3909 99.6365 84.9859 97.8285 83.8906 93.5329L77.4585 65.6557C76.8274 62.7468 78.0639 59.9333 81.2436 59.3595ZM82.6922 70.2065C81.3215 70.9295 82.4574 71.8285 83.2401 72.448C83.386 72.5634 83.5197 72.6692 83.6225 72.7623C83.87 72.9864 84.1148 73.2233 84.3612 73.4618C84.9264 74.0088 85.5004 74.5644 86.1361 74.9935C87.4714 75.8952 89.425 75.9125 90.7982 75.0833C91.6067 74.595 92.1504 73.8241 92.5694 72.999C92.7467 72.594 92.9767 72.0051 92.7788 71.5709C92.5461 71.0602 91.9536 70.9122 91.4912 71.2073C91.1771 71.4077 91.0525 71.7386 90.9151 72.1035C90.732 72.5898 90.5262 73.1365 89.8186 73.515L89.7642 73.545C89.4139 73.7306 88.8664 73.8445 88.4676 73.8317L88.4104 73.8303C87.4098 73.7972 86.665 73.1474 85.976 72.4922L84.6163 71.1377C84.5839 71.1054 84.5514 71.0726 84.5187 71.0397C84.0138 70.5315 83.4711 69.9851 82.6922 70.2065ZM89.1711 81.3431C91.2434 81.037 90.0838 84.3088 89.6277 85.1925C89.072 86.2694 88.0124 87.4198 86.8296 87.7919C86.1468 88.0515 85.6895 87.5891 85.7331 86.9399C85.7635 86.4879 86.1092 86.1917 86.5451 85.8182C87.2246 85.2358 88.1234 84.4657 88.3882 82.6244C88.3927 82.5935 88.397 82.5631 88.4012 82.5333C88.4837 81.9486 88.5358 81.5788 89.1711 81.3431ZM96.16 80.4457C95.7078 80.0513 95.2819 79.7817 94.6707 79.9976C93.5525 80.7457 94.3595 81.4297 95.0522 82.0168C95.0727 82.0342 95.0931 82.0515 95.1133 82.0687C96.7316 83.4443 97.0167 85.9119 95.509 87.485C95.4036 87.595 95.2881 87.6912 95.1751 87.7853C94.8597 88.0479 94.5637 88.2944 94.5596 88.7802C94.5534 89.5474 95.3017 89.8613 95.9525 89.5553C96.395 89.3294 96.7093 88.9687 97.0054 88.5786C99.04 85.8987 98.7765 82.7271 96.16 80.4457Z" fill="#17161E"/>
</svg>
