<svg width="32" height="25" viewBox="0 0 32 25" fill="none" xmlns="http://www.w3.org/2000/svg">
<path fill-rule="evenodd" clip-rule="evenodd" d="M3.33678 0.0155856L5.22644 0.00597353L8.69321 0.00587301L19.1989 0.00678022L25.7808 0.00573814L27.5867 0.00442783C27.6714 0.00412324 27.7564 0.00319924 27.8415 0.00227358C28.2072 -0.00170345 28.5758 -0.00571092 28.9376 0.039247C29.5872 0.119977 30.212 0.415167 30.7175 0.831722C31.4686 1.45064 31.8931 2.35113 31.9831 3.31666C32.0064 3.5663 32.0006 3.82629 31.995 4.08244C31.9927 4.18343 31.9905 4.28382 31.9901 4.38275L31.9807 6.45191L31.9764 13.0649L31.978 18.9494L31.9822 20.661C31.9824 20.742 31.9834 20.8234 31.9844 20.9052C31.9884 21.2296 31.9924 21.5584 31.9475 21.8771C31.8491 22.5759 31.5384 23.2003 31.0925 23.7375C30.5161 24.4319 29.6016 24.8994 28.7129 24.9802L28.6362 24.9883C28.492 25.0018 28.345 25.0005 28.199 24.9993L28.1143 24.9987L28.0698 24.9986L27.1666 24.9984L24.2714 24.9978L15.102 24.9987L7.01048 24.9968L4.58457 24.992C4.46938 24.9916 4.35308 24.9928 4.23623 24.9939C3.8546 24.9977 3.46719 25.0015 3.09402 24.9525C2.39138 24.8603 1.73185 24.5394 1.19414 24.0744C0.490298 23.4658 0.0844453 22.5502 0.016342 21.6238C-0.00569662 21.3241 -0.000691609 21.017 0.0042751 20.7122C0.00630874 20.5875 0.00833596 20.4631 0.0084977 20.3398L0.0107678 17.9725L0.00974376 10.491L0.0108441 5.5336L0.0109733 4.08823C0.0109999 4.01711 0.00979009 3.94493 0.00857223 3.87227C0.0049447 3.65583 0.00124589 3.43515 0.0299395 3.22565C0.129649 2.4976 0.406347 1.82044 0.882868 1.26175C1.50423 0.533271 2.39291 0.0886524 3.33678 0.0155856ZM31.2894 3.36865C31.2997 3.49522 31.2966 3.62603 31.2934 3.75536C31.2921 3.80886 31.2908 3.86211 31.2905 3.9147L31.2873 4.84279L31.2837 8.01007L31.2797 17.2399L31.2774 19.8363L31.2756 20.8784L31.2756 20.909V20.9091C31.2747 21.3293 31.2738 21.7264 31.158 22.1357C30.9454 22.8871 30.4546 23.5007 29.7813 23.8791L29.7736 23.8762C29.7716 23.8738 29.7693 23.8715 29.7671 23.8693L29.7671 23.8692C29.7649 23.867 29.7627 23.8648 29.7607 23.8625C29.7587 23.86 29.7569 23.8574 29.7558 23.8544C29.7491 23.8373 29.752 23.789 29.7542 23.7512L29.7553 23.732C29.7557 23.7243 29.756 23.7177 29.756 23.7125L29.7568 23.1744L29.759 20.1616L29.752 4.57933C29.8194 4.4976 29.9265 4.42122 30.0262 4.35009L30.0262 4.35004C30.07 4.3188 30.1124 4.28858 30.1493 4.25937L31.2894 3.36865ZM2.24164 4.54286L0.719914 3.3667L0.724483 16.2068L0.724338 19.8997L0.724328 21.0006L0.72412 21.113C0.723359 21.3669 0.722607 21.6179 0.76221 21.8705C0.849393 22.4267 1.12303 22.9713 1.5131 23.37C1.7355 23.5974 1.96646 23.7938 2.25235 23.9347L2.24679 9.56067L2.24548 5.90995L2.24636 4.9742C2.24642 4.93454 2.24805 4.89205 2.24973 4.84849C2.25373 4.74479 2.25796 4.635 2.24164 4.54286ZM3.25393 0.737235C3.44825 0.70807 3.66497 0.714394 3.87345 0.720478C3.95567 0.722877 4.03661 0.725238 4.11438 0.725371L5.81799 0.728866L11.7073 0.730648L23.0155 0.731253L26.7708 0.730782L28.6545 0.733101C28.9881 0.74715 29.3108 0.832081 29.6162 0.966753C30.3309 1.28194 30.8534 1.86631 31.1382 2.59718L23.3568 8.63244L19.3029 11.7635L17.3676 13.2566L16.6603 13.8009C16.6311 13.8234 16.5986 13.8505 16.564 13.8793C16.4461 13.9774 16.3039 14.0957 16.1818 14.1237L16.1607 14.128L16.0893 14.141C15.9306 14.1587 15.8102 14.1337 15.676 14.0452C15.5444 13.9585 15.4214 13.8573 15.2986 13.7562C15.2262 13.6967 15.1539 13.6373 15.08 13.5809L13.6723 12.5032L10.1116 9.74713L3.5275 4.6459L0.894566 2.60168L0.912286 2.55291C1.16876 1.86305 1.74571 1.27418 2.40491 0.974887C2.67709 0.851306 2.95991 0.780121 3.25393 0.737235ZM29.0593 5.46678C29.0633 5.33407 29.0673 5.19886 29.0539 5.07129C28.663 5.4162 28.2468 5.7301 27.8307 6.04382C27.6034 6.21521 27.3762 6.38655 27.1532 6.56287L22.0814 10.5098L18.2951 13.4384L17.2071 14.283C17.1595 14.3196 17.1117 14.3576 17.0637 14.3959C16.9421 14.4929 16.8186 14.5913 16.69 14.6721C16.4614 14.8157 16.1772 14.8927 15.9085 14.8731C15.7079 14.8585 15.5112 14.7921 15.3416 14.6822C15.204 14.5929 15.0725 14.489 14.9421 14.3861C14.8921 14.3466 14.8422 14.3072 14.7922 14.2688L13.6981 13.4198L10.6305 11.0461L5.08355 6.74752L2.94537 5.08907L2.95565 14.507L2.9589 24.1882C3.33006 24.2647 3.70557 24.2592 4.08204 24.2537C4.16484 24.2525 4.24768 24.2512 4.33054 24.2509L5.88459 24.2474L11.7394 24.2423L23.9646 24.2438L27.007 24.2527L28.0338 24.2558C28.0645 24.2559 28.0952 24.256 28.1258 24.2562C28.4422 24.2576 28.7537 24.2591 29.0645 24.1797L29.056 10.8179L29.0503 6.74678L29.0556 5.62978C29.056 5.57635 29.0576 5.52178 29.0593 5.46678Z" fill="white"/>
</svg>
